<svg xmlns="http://www.w3.org/2000/svg" version="1.1" xmlns:xlink="http://www.w3.org/1999/xlink" xmlns:svgjs="http://svgjs.com/svgjs" width="1000" height="1000"><rect width="1000" height="1000" rx="200" ry="200" fill="#243763"></rect><g transform="matrix(12.5,0,0,12.5,99.99934196472168,99.99934196472168)"><svg xmlns="http://www.w3.org/2000/svg" version="1.1" xmlns:xlink="http://www.w3.org/1999/xlink" xmlns:svgjs="http://svgjs.com/svgjs" width="64" height="64"><svg width="64" height="64" viewBox="0 0 64 64" fill="none" xmlns="http://www.w3.org/2000/svg">
<g clip-path="url(#clip0_198_5)">
<path opacity="0.5" d="M-0.0319824 32C-0.0319824 16.9 -0.0319828 9.34997 4.65901 4.65901C9.34997 -0.0319828 16.9 -0.0319824 32 -0.0319824C47.0999 -0.0319824 54.6502 -0.0319828 59.341 4.65901C64.0321 9.34997 64.0321 16.9 64.0321 32C64.0321 47.0999 64.0321 54.6502 59.341 59.341C54.6502 64.0321 47.0999 64.0321 32 64.0321C16.9 64.0321 9.34997 64.0321 4.65901 59.341C-0.0319828 54.6502 -0.0319824 47.0999 -0.0319824 32Z" fill="#243763"></path>
<path d="M36.7666 14.2092C38.0482 14.5526 38.8086 15.8699 38.4653 17.1515L30.1747 48.092C29.8313 49.3736 28.5139 50.1343 27.2323 49.791C25.9507 49.4473 25.1902 48.1301 25.5336 46.8485L33.8241 15.9079C34.1675 14.6263 35.485 13.8658 36.7666 14.2092Z" fill="#B33800"></path>
<path d="M41.5125 20.6917C42.4507 19.7535 43.9716 19.7535 44.9098 20.6917L45.5774 21.359C47.6124 23.394 49.3094 25.091 50.4754 26.6193C51.7064 28.2324 52.5696 29.9369 52.5696 32C52.5696 34.0632 51.7064 35.7676 50.4754 37.3808C49.3094 38.909 47.6124 40.6061 45.5774 42.6411L44.9098 43.3083C43.9716 44.2465 42.4507 44.2465 41.5125 43.3083C40.5743 42.3701 40.5743 40.8492 41.5125 39.911L42.0619 39.3613C44.2455 37.1777 45.7087 35.7074 46.6556 34.4662C47.5602 33.2807 47.7648 32.5904 47.7648 32C47.7648 31.4097 47.5602 30.7194 46.6556 29.5339C45.7087 28.2927 44.2455 26.8224 42.0619 24.6388L41.5125 24.0892C40.5743 23.151 40.5743 21.6299 41.5125 20.6917Z" fill="#B33800"></path>
<path d="M19.0906 20.6917C20.0288 19.7535 21.5499 19.7535 22.4881 20.6917C23.4263 21.6299 23.4263 23.151 22.4881 24.0892L21.9385 24.6388C19.755 26.8224 18.2919 28.2927 17.3449 29.5339C16.4402 30.7194 16.2357 31.4097 16.2357 32C16.2357 32.5904 16.4402 33.2807 17.3449 34.4662C18.2919 35.7074 19.755 37.1777 21.9385 39.3613L22.4881 39.911C23.4263 40.8492 23.4263 42.3701 22.4881 43.3083C21.5499 44.2465 20.0288 44.2465 19.0906 43.3083L18.4232 42.6411C16.3881 40.6061 14.691 38.909 13.525 37.3808C12.2942 35.7676 11.4309 34.0632 11.4309 32C11.4309 29.9369 12.2942 28.2324 13.525 26.6193C14.691 25.091 16.3881 23.394 18.4232 21.359L19.0906 20.6917Z" fill="#B33800"></path>
</g>
<defs>
<clipPath id="clip0_198_5">
<rect width="64" height="64" fill="white"></rect>
</clipPath>
</defs>
</svg></svg></g></svg>