<svg width="35" height="35" viewBox="0 0 35 35" xmlns="http://www.w3.org/2000/svg">
    <g id="gitIcon">
        <path fill-rule="evenodd" clip-rule="evenodd" d="M17.5 1.09375C8.23407 1.09375 0.729126 8.5987 0.729126 17.8646C0.729126 25.2857 5.52978 31.5538 12.1962 33.7759C13.0347 33.9227 13.3492 33.4195 13.3492 32.9793C13.3492 32.581 13.3282 31.2603 13.3282 29.8557C9.11454 30.6314 8.02444 28.8285 7.68902 27.8852C7.50035 27.403 6.68277 25.9146 5.97001 25.5163C5.38303 25.2018 4.54449 24.4262 5.94905 24.4052C7.26975 24.3842 8.21311 25.6211 8.52756 26.1242C10.0369 28.6608 12.4477 27.948 13.4121 27.5078C13.5588 26.4177 13.999 25.684 14.4812 25.2647C10.7497 24.8454 6.85048 23.399 6.85048 16.9841C6.85048 15.1603 7.50035 13.6509 8.56949 12.477C8.40178 12.0577 7.8148 10.3387 8.7372 8.03268C8.7372 8.03268 10.1418 7.59245 13.3492 9.75169C14.6908 9.37435 16.1164 9.18568 17.5419 9.18568C18.9674 9.18568 20.3929 9.37435 21.7346 9.75169C24.942 7.57148 26.3466 8.03268 26.3466 8.03268C27.269 10.3387 26.682 12.0577 26.5143 12.477C27.5834 13.6509 28.2333 15.1393 28.2333 16.9841C28.2333 23.4199 24.3131 24.8454 20.5816 25.2647C21.1895 25.7888 21.7136 26.7951 21.7136 28.3673C21.7136 30.6104 21.6927 32.4133 21.6927 32.9793C21.6927 33.4195 22.0071 33.9436 22.8457 33.7759C29.4701 31.5538 34.2708 25.2647 34.2708 17.8646C34.2708 8.5987 26.7658 1.09375 17.5 1.09375V1.09375Z"/>
    </g>
    <g id="linkedinIcon">
        <rect width="35" height="35" rx="3" fill="white"/>
        <path d="M6.92708 2.73438C5.21558 2.73438 3.82812 4.12183 3.82812 5.83333C3.82812 7.54484 5.21558 8.93229 6.92708 8.93229C8.63859 8.93229 10.026 7.54484 10.026 5.83333C10.026 4.12183 8.63859 2.73438 6.92708 2.73438Z" fill="black"/>
        <path d="M4.01042 11.4844C3.90974 11.4844 3.82812 11.566 3.82812 11.6667V30.625C3.82812 30.7257 3.90974 30.8073 4.01042 30.8073H9.84375C9.94443 30.8073 10.026 30.7257 10.026 30.625V11.6667C10.026 11.566 9.94443 11.4844 9.84375 11.4844H4.01042Z" fill="black"/>
        <path d="M13.4896 11.4844C13.3889 11.4844 13.3073 11.566 13.3073 11.6667V30.625C13.3073 30.7257 13.3889 30.8073 13.4896 30.8073H19.3229C19.4236 30.8073 19.5052 30.7257 19.5052 30.625V20.4167C19.5052 19.6915 19.7933 18.996 20.3061 18.4832C20.8189 17.9704 21.5144 17.6823 22.2396 17.6823C22.9648 17.6823 23.6603 17.9704 24.1731 18.4832C24.6859 18.996 24.974 19.6915 24.974 20.4167V30.625C24.974 30.7257 25.0556 30.8073 25.1563 30.8073H30.9896C31.0903 30.8073 31.1719 30.7257 31.1719 30.625V18.0545C31.1719 14.5155 28.0939 11.7469 24.5727 12.067C23.4867 12.1657 22.4131 12.4357 21.4105 12.8653L19.5052 13.6819V11.6667C19.5052 11.566 19.4236 11.4844 19.3229 11.4844H13.4896Z" fill="black"/>

    </g>
    <g id="telegramIcon">
        <path d="M36.7527 0.38643L1.31463 14.2583C-0.111463 14.9043 -0.593806 16.1979 0.969943 16.9L10.0613 19.8328L32.0432 6.04268C33.2434 5.17696 34.4722 5.4078 33.4148 6.36015L14.5354 23.712L13.9424 31.0553C14.4917 32.1891 15.4974 32.1944 16.139 31.6308L21.3623 26.6139L30.308 33.4137C32.3857 34.6623 33.5163 33.8565 33.9633 31.568L39.8309 3.36528C40.4401 0.548323 39.4012 -0.692859 36.7527 0.38643Z" fill="white"/>
    </g>
</svg>
