<svg width="35" height="35" viewBox="0 0 35 35" xmlns="http://www.w3.org/2000/svg">
    <g id="gitIcon">
        <path fill-rule="evenodd" clip-rule="evenodd" d="M17.5 1.09375C8.23407 1.09375 0.729126 8.5987 0.729126 17.8646C0.729126 25.2857 5.52978 31.5538 12.1962 33.7759C13.0347 33.9227 13.3492 33.4195 13.3492 32.9793C13.3492 32.581 13.3282 31.2603 13.3282 29.8557C9.11454 30.6314 8.02444 28.8285 7.68902 27.8852C7.50035 27.403 6.68277 25.9146 5.97001 25.5163C5.38303 25.2018 4.54449 24.4262 5.94905 24.4052C7.26975 24.3842 8.21311 25.6211 8.52756 26.1242C10.0369 28.6608 12.4477 27.948 13.4121 27.5078C13.5588 26.4177 13.999 25.684 14.4812 25.2647C10.7497 24.8454 6.85048 23.399 6.85048 16.9841C6.85048 15.1603 7.50035 13.6509 8.56949 12.477C8.40178 12.0577 7.8148 10.3387 8.7372 8.03268C8.7372 8.03268 10.1418 7.59245 13.3492 9.75169C14.6908 9.37435 16.1164 9.18568 17.5419 9.18568C18.9674 9.18568 20.3929 9.37435 21.7346 9.75169C24.942 7.57148 26.3466 8.03268 26.3466 8.03268C27.269 10.3387 26.682 12.0577 26.5143 12.477C27.5834 13.6509 28.2333 15.1393 28.2333 16.9841C28.2333 23.4199 24.3131 24.8454 20.5816 25.2647C21.1895 25.7888 21.7136 26.7951 21.7136 28.3673C21.7136 30.6104 21.6927 32.4133 21.6927 32.9793C21.6927 33.4195 22.0071 33.9436 22.8457 33.7759C29.4701 31.5538 34.2708 25.2647 34.2708 17.8646C34.2708 8.5987 26.7658 1.09375 17.5 1.09375V1.09375Z"/>
    </g>
    <g id="linkedinIcon">
        <rect width="35" height="35" rx="3" fill="white"/>
        <path d="M6.92708 2.73438C5.21558 2.73438 3.82812 4.12183 3.82812 5.83333C3.82812 7.54484 5.21558 8.93229 6.92708 8.93229C8.63859 8.93229 10.026 7.54484 10.026 5.83333C10.026 4.12183 8.63859 2.73438 6.92708 2.73438Z" fill="black"/>
        <path d="M4.01042 11.4844C3.90974 11.4844 3.82812 11.566 3.82812 11.6667V30.625C3.82812 30.7257 3.90974 30.8073 4.01042 30.8073H9.84375C9.94443 30.8073 10.026 30.7257 10.026 30.625V11.6667C10.026 11.566 9.94443 11.4844 9.84375 11.4844H4.01042Z" fill="black"/>
        <path d="M13.4896 11.4844C13.3889 11.4844 13.3073 11.566 13.3073 11.6667V30.625C13.3073 30.7257 13.3889 30.8073 13.4896 30.8073H19.3229C19.4236 30.8073 19.5052 30.7257 19.5052 30.625V20.4167C19.5052 19.6915 19.7933 18.996 20.3061 18.4832C20.8189 17.9704 21.5144 17.6823 22.2396 17.6823C22.9648 17.6823 23.6603 17.9704 24.1731 18.4832C24.6859 18.996 24.974 19.6915 24.974 20.4167V30.625C24.974 30.7257 25.0556 30.8073 25.1563 30.8073H30.9896C31.0903 30.8073 31.1719 30.7257 31.1719 30.625V18.0545C31.1719 14.5155 28.0939 11.7469 24.5727 12.067C23.4867 12.1657 22.4131 12.4357 21.4105 12.8653L19.5052 13.6819V11.6667C19.5052 11.566 19.4236 11.4844 19.3229 11.4844H13.4896Z" fill="black"/>

    </g>
    <g id="telegramIcon">
        <path d="M36.7527 0.38643L1.31463 14.2583C-0.111463 14.9043 -0.593806 16.1979 0.969943 16.9L10.0613 19.8328L32.0432 6.04268C33.2434 5.17696 34.4722 5.4078 33.4148 6.36015L14.5354 23.712L13.9424 31.0553C14.4917 32.1891 15.4974 32.1944 16.139 31.6308L21.3623 26.6139L30.308 33.4137C32.3857 34.6623 33.5163 33.8565 33.9633 31.568L39.8309 3.36528C40.4401 0.548323 39.4012 -0.692859 36.7527 0.38643Z" fill="white"/>
    </g>
    <g id="jsIcon">
        <path d="M2065.33 1435.65C2047.04 1321.58 1972.65 1225.81 1752.35 1136.45C1675.83 1101.28 1590.52 1076.09 1565.09 1018.1C1556.06 984.358 1554.87 965.347 1560.57 944.909C1576.97 878.606 1656.11 857.93 1718.85 876.942C1759.25 890.488 1797.51 921.622 1820.56 971.288C1928.45 901.422 1928.21 901.895 2003.55 853.893C1975.98 811.117 1961.25 791.389 1943.18 773.093C1878.31 700.611 1789.9 663.3 1648.5 666.152C1624.03 669.241 1599.31 672.566 1574.83 675.658C1504.25 693.481 1437 730.554 1397.55 780.222C1279.2 914.493 1312.95 1149.52 1456.96 1246.25C1598.83 1352.71 1807.25 1376.95 1833.87 1476.53C1859.77 1598.44 1744.28 1637.89 1629.49 1623.87C1544.89 1606.28 1497.84 1563.27 1446.98 1485.08C1353.35 1539.27 1353.35 1539.27 1257.1 1594.64C1279.92 1644.54 1303.92 1667.12 1342.18 1710.37C1523.27 1894.07 1976.46 1885.04 2057.73 1606.99C2061.06 1597.49 2082.92 1533.8 2065.33 1435.65ZM1129.01 680.884H895.164C895.164 882.883 894.215 1083.46 894.215 1285.46C894.215 1414.02 900.869 1531.9 879.957 1568.02C845.736 1639.07 757.093 1630.28 716.693 1616.5C675.581 1596.3 654.668 1567.54 630.428 1526.91C623.774 1515.26 618.783 1506.23 617.117 1505.52C553.668 1544.25 490.452 1583.23 427 1621.96C458.609 1686.84 505.186 1743.16 564.835 1779.76C653.952 1833.23 773.726 1849.63 898.968 1820.87C980.481 1797.11 1050.82 1747.92 1087.66 1673.06C1140.89 1574.91 1129.48 1456.09 1129.01 1324.67C1130.2 1110.31 1129.01 895.954 1129.01 680.884Z" fill="white"/>
    </g>
    <g id="reactIcon">
            <path d="M2194 1250.22C2194 1104.88 2011.99 967.14 1732.93 881.724C1797.33 597.3 1768.71 371.013 1642.59 298.565C1613.52 281.571 1579.54 273.521 1542.42 273.521V373.249C1562.99 373.249 1579.54 377.274 1593.4 384.876C1654.22 419.758 1680.61 552.579 1660.03 723.412C1655.12 765.45 1647.07 809.723 1637.23 854.891C1549.57 833.425 1453.87 816.879 1353.25 806.146C1292.88 723.412 1230.27 648.281 1167.21 582.542C1313 447.038 1449.85 372.802 1542.87 372.802V273.074C1419.88 273.074 1258.89 360.727 1096.11 512.777C933.322 361.621 772.327 274.863 649.345 274.863V374.59C741.917 374.59 879.21 448.38 1025 582.989C962.391 648.729 899.782 723.412 840.303 806.146C739.234 816.879 643.532 833.425 555.879 855.338C545.593 810.618 537.991 767.238 532.624 725.648C511.605 554.815 537.543 421.994 597.916 386.665C611.333 378.615 628.774 375.038 649.345 375.038V275.31C611.78 275.31 577.792 283.36 548.276 300.354C422.611 372.801 394.437 598.641 459.282 882.171C181.119 968.035 0 1105.33 0 1250.22C0 1395.57 182.013 1533.3 461.071 1618.72C396.673 1903.15 425.294 2129.43 551.407 2201.88C580.475 2218.87 614.463 2226.92 652.029 2226.92C775.011 2226.92 936.005 2139.27 1098.79 1987.22C1261.57 2138.38 1422.57 2225.13 1545.55 2225.13C1583.11 2225.13 1617.1 2217.09 1646.62 2200.09C1772.28 2127.64 1800.46 1901.8 1735.61 1618.27C2012.88 1532.86 2194 1395.12 2194 1250.22ZM1611.74 951.935C1595.19 1009.62 1574.62 1069.1 1551.36 1128.58C1533.03 1092.81 1513.8 1057.03 1492.78 1021.25C1472.21 985.476 1450.29 950.594 1428.38 916.606C1491.88 925.997 1553.15 937.625 1611.74 951.935ZM1406.91 1428.21C1372.03 1488.58 1336.26 1545.83 1299.14 1599.04C1232.5 1604.86 1164.98 1607.99 1097 1607.99C1029.47 1607.99 961.943 1604.86 895.757 1599.49C858.639 1546.27 822.415 1489.48 787.532 1429.55C753.545 1370.97 722.687 1311.49 694.513 1251.56C722.24 1191.64 753.545 1131.71 787.085 1073.13C821.968 1012.76 857.744 955.513 894.862 902.295C961.496 896.481 1029.02 893.351 1097 893.351C1164.53 893.351 1232.06 896.481 1298.24 901.848C1335.36 955.066 1371.59 1011.86 1406.47 1071.79C1440.46 1130.37 1471.31 1189.85 1499.49 1249.78C1471.31 1309.7 1440.46 1369.63 1406.91 1428.21ZM1551.36 1370.07C1575.51 1430 1596.08 1489.93 1613.08 1548.06C1554.49 1562.37 1492.78 1574.45 1428.83 1583.84C1450.74 1549.4 1472.65 1514.08 1493.23 1477.85C1513.8 1442.07 1533.03 1405.85 1551.36 1370.07ZM1097.89 1847.24C1056.3 1804.31 1014.71 1756.46 973.571 1704.14C1013.82 1705.93 1054.96 1707.27 1096.55 1707.27C1138.59 1707.27 1180.18 1706.37 1220.88 1704.14C1180.63 1756.46 1139.04 1804.31 1097.89 1847.24ZM765.172 1583.84C701.669 1574.45 640.401 1562.82 581.817 1548.51C598.364 1490.82 618.935 1431.34 642.19 1371.86C660.526 1407.64 679.755 1443.42 700.774 1479.19C721.793 1514.97 743.259 1549.85 765.172 1583.84ZM1095.66 653.201C1137.25 696.133 1178.84 743.984 1219.98 796.307C1179.73 794.518 1138.59 793.177 1097 793.177C1054.96 793.177 1013.37 794.071 972.676 796.307C1012.93 743.984 1054.52 696.133 1095.66 653.201ZM764.725 916.606C742.812 951.041 720.899 986.37 700.327 1022.59C679.755 1058.37 660.526 1094.15 642.19 1129.92C618.041 1070 597.469 1010.07 580.475 951.935C639.06 938.072 700.774 925.997 764.725 916.606ZM360.002 1476.51C201.691 1408.98 99.2801 1320.43 99.2801 1250.22C99.2801 1180.01 201.691 1091.02 360.002 1023.94C398.462 1007.39 440.499 992.631 483.879 978.768C509.369 1066.42 542.91 1157.65 584.5 1251.12C543.357 1344.14 510.264 1434.92 485.22 1522.12C440.947 1508.26 398.909 1493.06 360.002 1476.51ZM600.6 2115.57C539.78 2080.69 513.394 1947.87 533.966 1777.03C538.885 1735 546.935 1690.72 556.773 1645.55C644.426 1667.02 740.129 1683.57 840.75 1694.3C901.123 1777.03 963.732 1852.16 1026.79 1917.9C880.999 2053.41 744.153 2127.64 651.134 2127.64C631.01 2127.2 614.016 2123.17 600.6 2115.57ZM1661.38 1774.8C1682.39 1945.63 1656.46 2078.45 1596.08 2113.78C1582.67 2121.83 1565.23 2125.41 1544.65 2125.41C1452.08 2125.41 1314.79 2051.62 1169 1917.01C1231.61 1851.27 1294.22 1776.59 1353.7 1693.85C1454.77 1683.12 1550.47 1666.57 1638.12 1644.66C1648.41 1689.83 1656.46 1733.21 1661.38 1774.8ZM1833.55 1476.51C1795.09 1493.06 1753.05 1507.81 1709.67 1521.68C1684.18 1434.02 1650.64 1342.79 1609.05 1249.33C1650.2 1156.31 1683.29 1065.53 1708.33 978.32C1752.61 992.184 1794.64 1007.39 1834 1023.94C1992.31 1091.46 2094.72 1180.01 2094.72 1250.22C2094.27 1320.43 1991.86 1409.43 1833.55 1476.51Z" fill="white"/>
            <path d="M1096.55 1454.6C1209.43 1454.6 1300.93 1363.1 1300.93 1250.22C1300.93 1137.35 1209.43 1045.85 1096.55 1045.85C983.681 1045.85 892.18 1137.35 892.18 1250.22C892.18 1363.1 983.681 1454.6 1096.55 1454.6Z" fill="white"/>
    </g>
    <g id="reduxIcon">
                <path d="M1732.24 1657.64C1824.49 1648.09 1894.48 1568.56 1891.3 1473.11C1888.12 1377.67 1808.58 1301.31 1713.14 1301.31H1706.79C1608.15 1304.5 1531.81 1387.21 1534.99 1485.84C1538.17 1533.56 1557.26 1574.92 1585.89 1603.55C1477.72 1816.71 1312.29 1972.6 1064.15 2103.04C895.537 2192.12 720.566 2223.94 545.596 2201.68C402.432 2182.58 291.084 2118.96 221.084 2013.96C119.287 1858.07 109.746 1689.45 195.644 1520.84C256.094 1399.94 351.523 1310.86 411.973 1266.31C399.248 1224.96 380.156 1154.97 370.615 1104.07C-90.6837 1438.12 -42.9591 1889.89 97.0214 2103.04C202.002 2262.12 415.156 2360.75 650.576 2360.75C714.199 2360.75 777.822 2354.38 841.455 2338.48C1248.67 2258.94 1557.27 2017.14 1732.24 1657.64ZM2292.16 1263.14C2050.37 979.986 1694.06 824.098 1286.85 824.098H1235.95C1207.31 766.832 1146.87 728.648 1080.06 728.648H1073.69C975.078 731.832 898.73 814.547 901.904 913.18C905.088 1008.62 984.619 1084.98 1080.06 1084.98H1086.42C1156.41 1081.79 1216.86 1037.25 1242.3 976.803H1299.57C1541.36 976.803 1770.41 1046.79 1977.21 1183.6C2136.27 1288.59 2250.8 1425.4 2314.42 1590.83C2368.51 1724.45 2365.32 1854.89 2308.06 1966.25C2218.98 2134.86 2069.46 2227.13 1872.22 2227.13C1744.96 2227.13 1624.07 2188.94 1560.44 2160.31C1525.45 2192.12 1461.82 2243.02 1417.28 2274.85C1554.08 2338.47 1694.06 2373.47 1827.68 2373.47C2133.09 2373.47 2358.96 2204.85 2444.86 2036.24C2537.12 1851.71 2530.75 1533.56 2292.16 1263.14ZM676.025 1711.71C679.209 1807.16 758.74 1883.51 854.18 1883.51H860.547C959.17 1880.34 1035.52 1797.61 1032.33 1698.99C1029.16 1603.54 949.619 1527.19 854.18 1527.19H847.822C841.455 1527.19 831.904 1527.19 825.557 1530.37C695.117 1314.03 641.035 1078.61 660.127 824.088C672.842 633.199 736.474 467.76 847.822 330.953C940.078 213.238 1118.23 155.973 1239.13 152.799C1576.35 146.432 1719.5 566.383 1729.05 735.006C1770.41 744.547 1840.4 766.822 1888.12 782.73C1849.94 267.34 1531.81 0.09375 1226.41 0.09375C940.078 0.09375 676.025 206.891 571.035 512.311C424.697 919.537 520.137 1310.86 698.291 1619.46C682.392 1641.72 672.842 1676.71 676.025 1711.71Z" fill="white"/>
    </g>
    <g>
        <path d="M440.6,220.6c-17.9,0.101 -33.4,4.4 -46.4,10.801c-4.8,-9.5 -9.6,-17.801 -10.399,-24c-0.9,-7.2 -2,-11.601 -0.9,-20.2c1.099,-8.601 6.099,-20.801 6.099,-21.801c-0.101,-0.9 -1.101,-5.3 -11.4,-5.4c-10.299,-0.1 -19.2,2 -20.2,4.7c-1,2.7 -3,8.9 -4.3,15.3c-1.8,9.4 -20.6,42.7 -31.3,60.2c-3.5,-6.8 -6.5,-12.8 -7.101,-17.601c-0.899,-7.199 -2,-11.6 -0.899,-20.199c1.1,-8.601 6.1,-20.8 6.1,-21.8c-0.1,-0.9 -1.1,-5.3 -11.399,-5.4c-10.301,-0.1 -19.2,2 -20.2,4.7c-1,2.7 -2.1,9.1 -4.3,15.3c-2.101,6.2 -27.101,61.8 -33.601,76.3c-3.3,7.4 -6.199,13.3 -8.3,17.3c-2.1,4 -0.1,0.3 -0.3,0.7c-1.8,3.4 -2.8,5.3 -2.8,5.3v0.101c-1.4,2.5 -2.9,4.899 -3.601,4.899c-0.5,0 -1.5,-6.7 0.2,-15.899c3.7,-19.301 12.7,-49.4 12.601,-50.5c0,-0.5 1.699,-5.801 -5.801,-8.5c-7.3,-2.7 -9.899,1.8 -10.5,1.8c-0.6,0 -1.1,1.6 -1.1,1.6c0,0 8.1,-33.899 -15.5,-33.899c-14.8,0 -35.2,16.1 -45.3,30.8c-6.4,3.5 -20,10.899 -34.4,18.8c-5.5,3 -11.2,6.2 -16.6,9.1l-1.099,-1.202c-28.6,-30.5 -81.5,-52.1 -79.3,-93.1c0.8,-14.9 6,-54.2 101.601,-101.8c78.3,-39 141,-28.3 151.899,-4.5c15.5,34 -33.5,97.2 -114.899,106.3c-31,3.5 -47.301,-8.5 -51.4,-13c-4.3,-4.7 -4.9,-4.9 -6.5,-4c-2.6,1.4 -1,5.6 0,8.1c2.4,6.3 12.4,17.5 29.4,23.1c14.899,4.9 51.3,7.6 95.3,-9.4c49.3,-19.1 87.8,-72.1 76.5,-116.4c-11.5,-45.1 -86.3,-59.9 -157,-34.8c-42.101,15 -87.701,38.4 -120.501,69.1c-39,36.4 -45.2,68.2 -42.6,81.4c9.101,47.1 74,77.8 100,100.5c-1.3,0.699 -2.5,1.399 -3.6,2c-13,6.399 -62.5,32.3 -74.9,59.699c-14,31 2.2,53.301 13,56.301c33.4,9.3 67.6,-7.4 86.1,-34.9c18.399,-27.5 16.2,-63.2 7.7,-79.5l-0.301,-0.6l10.2,-6c6.601,-3.9 13.101,-7.5 18.8,-10.601c-3.199,8.7 -5.5,19 -6.699,34c-1.4,17.601 5.8,40.4 15.3,49.4c4.2,3.899 9.2,4 12.3,4c11,0 16,-9.101 21.5,-20c6.8,-13.3 12.8,-28.7 12.8,-28.7c0,0 -7.5,41.7 13,41.7c7.5,0 15,-9.7 18.4,-14.7v0.1c0,0 0.2,-0.3 0.6,-1c0.41959,-0.62041 0.81978,-1.25372 1.2,-1.899v-0.2c3,-5.2 9.7,-17.1 19.7,-36.8c12.899,-25.4 25.3,-57.2 25.3,-57.2c0,0 1.2,7.8 4.9,20.6c2.199,7.601 6.999,15.9 10.699,24c-3,4.2 -4.8,6.601 -4.8,6.601l0.1,0.1c-2.399,3.2 -5.1,6.601 -7.899,10c-10.2,12.2 -22.4,26.101 -24,30.101c-1.9,4.699 -1.5,8.199 2.2,11c2.7,2 7.5,2.399 12.6,2c9.2,-0.601 15.6,-2.9 18.8,-4.301c5,-1.8 10.7,-4.5 16.2,-8.5c10,-7.399 16.1,-17.899 15.5,-31.899c-0.3,-7.7 -2.8,-15.3 -5.9,-22.5c0.9,-1.3 1.801,-2.601 2.7,-4c15.8,-23.101 28,-48.5 28,-48.5c0,0 1.2,7.8 4.9,20.6c1.899,6.5 5.7,13.601 9.1,20.601c-14.8,12.1 -24.1,26.1 -27.3,35.3c-5.9,17 -1.3,24.7 7.4,26.5c3.899,0.8 9.5,-1 13.699,-2.8c5.2,-1.7 11.5,-4.601 17.301,-8.9c10,-7.4 19.6,-17.7 19.1,-31.6c-0.3,-6.4 -2,-12.7 -4.3,-18.7c12.6,-5.2 28.899,-8.2 49.6,-5.7c44.5,5.2 53.3,33 51.601,44.6c-1.7,11.601 -11,18 -14.101,20c-3.1,1.9 -4.1,2.601 -3.8,4c0.4,2.101 1.8,2 4.5,1.601c3.7,-0.601 23.4,-9.5 24.2,-30.899c1.2,-27.504 -24.9,-57.504 -71.2,-57.205zM97.4,336.3c-14.7,16.1 -35.4,22.2 -44.2,17c-9.5,-5.5 -5.801,-29.2 12.3,-46.3c11,-10.4 25.3,-20 34.7,-25.9c2.1,-1.3 5.3,-3.199 9.1,-5.5c0.6,-0.399 1,-0.6 1,-0.6c0.7,-0.4 1.5,-0.9 2.3,-1.4c6.7,24.4 0.3,45.8 -15.2,62.7zM204.9,263.2c-5.1,12.5 -15.9,44.6 -22.4,42.8c-5.601,-1.5 -9,-25.8 -1.101,-49.8c4,-12.101 12.5,-26.5 17.5,-32.101c8.101,-9 16.9,-12 19.101,-8.3c2.6,4.801 -9.9,39.601 -13.1,47.401zM293.6,305.6c-2.2,1.101 -4.2,1.9 -5.1,1.301c-0.7,-0.4 0.899,-1.9 0.899,-1.9c0,0 11.1,-11.9 15.5,-17.4c2.5,-3.199 5.5,-6.899 8.7,-11.1v1.2c0.001,14.399 -13.799,23.999 -19.999,27.899zM361.999,290c-1.6,-1.2 -1.399,-4.9 4,-16.5c2.101,-4.6 6.9,-12.3 15.2,-19.6c1,3 1.601,5.899 1.5,8.6c-0.099,18 -12.899,24.7 -20.7,27.5z"/>
    </g>
    <g id='tsIcon'>
            <path d="M1134.89 686.234H1254.81V893.266H930.594V1814.36L922 1816.7C910.281 1819.83 755.984 1819.83 722.781 1816.31L696.219 1813.97V893.266H372V686.234L474.734 685.062C530.984 684.281 675.516 684.281 795.828 685.062C916.141 685.844 1068.48 686.234 1134.89 686.234ZM2050.12 1716.7C2002.47 1767.09 1951.3 1795.22 1866.14 1818.27C1829.03 1828.42 1822.78 1828.81 1739.19 1828.42C1655.59 1828.03 1648.95 1828.03 1608.33 1817.48C1503.25 1790.53 1418.48 1737.8 1360.67 1663.19C1344.27 1642.09 1317.31 1598.34 1317.31 1592.88C1317.31 1591.31 1321.22 1587.8 1326.3 1585.45C1331.37 1583.11 1341.92 1576.47 1350.52 1571.39C1359.11 1566.31 1374.73 1556.94 1385.28 1551.47C1395.83 1546 1426.3 1528.03 1452.86 1512.02C1479.42 1496 1503.64 1483.11 1506.37 1483.11C1509.11 1483.11 1514.19 1488.58 1518.09 1495.22C1541.53 1534.67 1596.22 1585.06 1634.89 1602.25C1658.72 1612.41 1711.45 1623.73 1736.84 1623.73C1760.28 1623.73 1803.25 1613.58 1826.3 1603.03C1850.91 1591.7 1863.41 1580.38 1878.25 1557.72C1888.41 1541.7 1889.58 1537.41 1889.19 1506.94C1889.19 1478.81 1887.62 1471 1879.81 1458.11C1857.94 1422.17 1828.25 1403.42 1707.94 1350.3C1583.72 1295.22 1527.86 1262.41 1482.55 1218.27C1448.95 1185.45 1442.31 1176.47 1421.22 1135.45C1393.87 1082.72 1390.36 1065.53 1389.97 987.016C1389.58 931.937 1390.75 913.969 1396.61 895.219C1404.81 867.094 1431.37 812.797 1443.48 799.125C1468.48 769.828 1477.47 760.844 1495.05 746.391C1548.17 702.641 1630.98 673.734 1710.28 671C1719.27 671 1748.95 672.562 1776.69 674.516C1856.37 681.156 1910.67 700.687 1963.02 742.484C2002.47 773.734 2062.23 847.172 2056.37 856.938C2052.47 862.797 1896.61 966.703 1886.45 969.828C1880.2 971.781 1875.91 969.437 1867.31 959.281C1814.19 895.609 1792.7 881.937 1741.14 878.812C1704.42 876.469 1684.89 880.766 1660.28 897.172C1634.5 914.359 1622 940.531 1622 976.859C1622.39 1029.98 1642.7 1054.98 1717.7 1092.09C1766.14 1115.92 1807.55 1135.45 1810.67 1135.45C1815.36 1135.45 1915.75 1185.45 1941.92 1201.08C2063.8 1272.56 2113.41 1346 2126.3 1472.56C2135.67 1567.87 2108.72 1654.98 2050.12 1716.7Z" fill="white"/>
    </g>
</svg>
