<svg width="35" height="35" viewBox="0 0 35 35" xmlns="http://www.w3.org/2000/svg">
    <g id="gitIcon">
        <path d="M12.0417 28.9592C12.0417 29.1166 11.8842 29.229 11.6593 29.229C11.4344 29.229 11.2544 29.229 11.2544 28.9592C11.2544 28.6894 11.4344 28.6894 11.6368 28.6894C11.8392 28.6894 12.0417 28.8018 12.0417 28.9592ZM9.79244 28.622C9.79244 28.7793 9.79244 28.9592 10.1073 29.0042C10.1879 29.0428 10.2805 29.048 10.3648 29.0186C10.4491 28.9891 10.5183 28.9273 10.5572 28.8468C10.5572 28.6894 10.5572 28.532 10.2423 28.4646C9.92739 28.3971 9.83743 28.4646 9.79244 28.622ZM12.9863 28.5096C12.7839 28.5096 12.649 28.6894 12.6715 28.8693C12.6939 29.0491 12.8739 29.1166 13.0988 29.0716C13.3237 29.0267 13.4362 28.8693 13.4137 28.7119C13.3912 28.5545 13.2113 28.4871 12.9863 28.5096ZM17.7771 0.00141343C15.4051 -0.020912 13.0529 0.436028 10.8618 1.3448C8.67073 2.25358 6.6859 3.59547 5.02642 5.28993C3.36696 6.98439 2.06706 8.99651 1.20476 11.2055C0.342447 13.4145 -0.0645281 15.7748 0.00830192 18.145C-0.0544965 22.0275 1.09745 25.8327 3.30319 29.0291C5.50894 32.2255 8.65836 34.6534 12.3116 35.9738C13.2338 36.1312 13.5711 35.5467 13.5711 35.0745C13.5711 34.6024 13.5711 32.0618 13.5711 30.578C13.5711 30.578 8.48789 31.7021 7.40826 28.3297C7.40826 28.3297 6.59854 26.0814 5.40645 25.6093C5.40645 25.6093 3.74202 24.4402 5.51891 24.4626C6.10087 24.5411 6.65634 24.7549 7.14071 25.0868C7.62509 25.4186 8.02486 25.8595 8.30795 26.3737C8.54329 26.8348 8.87042 27.2431 9.26925 27.5731C9.66806 27.9034 10.1302 28.1487 10.6272 28.2939C11.1243 28.4392 11.6458 28.4814 12.1598 28.418C12.6738 28.3546 13.1693 28.1867 13.6161 27.925C13.7013 26.9863 14.1062 26.1055 14.7632 25.4294C10.7146 24.9573 6.62103 24.3727 6.62103 17.2007C6.57802 16.3904 6.70825 15.5804 7.00299 14.8245C7.29775 14.0686 7.75028 13.384 8.33044 12.8166C7.78307 11.1708 7.84695 9.38303 8.51038 7.78046C10.0399 7.28584 13.5261 9.78143 13.5261 9.78143C16.5045 8.94176 19.6573 8.94176 22.6355 9.78143C22.6355 9.78143 26.1218 7.28584 27.6512 7.78046C28.3292 9.37989 28.393 11.1729 27.8312 12.8166C28.4319 13.3762 28.9083 14.0556 29.23 14.8108C29.5514 15.566 29.7109 16.3801 29.698 17.2007C29.698 24.3952 25.4245 24.9573 21.3759 25.4294C21.7828 25.8856 22.0925 26.42 22.2859 26.9998C22.4791 27.5797 22.5522 28.1928 22.5005 28.8018C22.5005 31.3199 22.5005 34.4225 22.5005 35.0296C22.4992 35.1813 22.5342 35.3313 22.6031 35.4666C22.6721 35.602 22.7724 35.7189 22.8961 35.807C23.0196 35.8954 23.1629 35.9525 23.3132 35.9736C23.4636 35.995 23.617 35.9795 23.7601 35.9289C27.4067 34.6199 30.5496 32.199 32.7451 29.008C34.9408 25.817 36.0777 22.017 35.9959 18.145C36.017 15.7508 35.5597 13.3764 34.6508 11.1612C33.7419 8.94592 32.3996 6.93436 30.7028 5.24447C29.0059 3.55457 26.9884 2.22033 24.7689 1.32001C22.5493 0.419684 20.1723 -0.0286011 17.7771 0.00141343ZM7.07088 25.6542C7.07088 25.6542 7.07088 25.9015 7.07088 26.0364C7.09595 26.0616 7.12573 26.0816 7.15855 26.0951C7.19137 26.1088 7.22652 26.1158 7.26206 26.1158C7.29757 26.1158 7.33275 26.1088 7.36557 26.0951C7.39836 26.0816 7.42817 26.0616 7.45324 26.0364C7.45324 26.0364 7.45324 25.7891 7.45324 25.6318C7.45324 25.4744 7.16084 25.5643 7.07088 25.6542ZM6.28365 25.0472C6.28365 25.0472 6.28365 25.272 6.44109 25.3395C6.46005 25.3631 6.48405 25.382 6.51129 25.395C6.53853 25.4078 6.56835 25.4148 6.59854 25.4148C6.62872 25.4148 6.65852 25.4078 6.68576 25.395C6.71302 25.382 6.737 25.3631 6.75598 25.3395C6.75598 25.3395 6.75598 25.1146 6.59854 25.0472C6.44109 24.9798 6.32863 24.9798 6.28365 25.0472ZM8.53287 27.7002C8.53287 27.7002 8.53287 28.0149 8.53287 28.1723C8.53287 28.3297 8.91524 28.3522 9.00521 28.1723C9.09518 27.9924 9.00521 27.8575 9.00521 27.7002C9.00521 27.5428 8.71281 27.5878 8.62284 27.7002H8.53287ZM7.70066 26.5985C7.70066 26.5985 7.70066 26.8683 7.70066 27.0482C7.70066 27.228 8.01555 27.2955 8.12801 27.228C8.18496 27.1626 8.21634 27.0787 8.21634 26.992C8.21634 26.9052 8.18496 26.8213 8.12801 26.7559C8.01555 26.576 7.83561 26.5086 7.70066 26.5985Z"/>
    </g>
    <g id="linkedinIcon">
      <path d="M18 0C8.05781 0 0 8.05781 0 18C0 27.9422 8.05781 36 18 36C27.9422 36 36 27.9422 36 18C36 8.05781 27.9422 0 18 0ZM12.9656 25.5305H9.45703V14.3016H12.9656V25.5305ZM11.1164 12.8953H11.0883C9.81562 12.8953 8.99297 12.0375 8.99297 10.9477C8.99297 9.83672 9.84375 9 11.1375 9C12.4312 9 13.2258 9.83672 13.2539 10.9477C13.2609 12.0305 12.4383 12.8953 11.1164 12.8953ZM27 25.5305H23.0203V19.7227C23.0203 18.2039 22.4016 17.1633 21.0305 17.1633C19.9828 17.1633 19.3992 17.8664 19.132 18.5414C19.0336 18.7805 19.0477 19.118 19.0477 19.4625V25.5305H15.1031C15.1031 25.5305 15.1523 15.2367 15.1031 14.3016H19.0477V16.0664C19.2797 15.293 20.5383 14.1961 22.5492 14.1961C25.0453 14.1961 27 15.8133 27 19.2867V25.5305Z"/>
    </g>
    <g id="telegramIcon">
        <path d="M24.8872 11.2952C24.8939 11.2952 24.9029 11.2952 24.9119 11.2952C25.1471 11.2952 25.3653 11.3683 25.5442 11.4943L25.5408 11.4921C25.6713 11.6057 25.7591 11.7654 25.7804 11.9454V11.9488C25.8029 12.0861 25.8153 12.2436 25.8153 12.4044C25.8153 12.4776 25.8131 12.5496 25.8074 12.6216V12.6114C25.5543 15.2766 24.4563 21.7397 23.8983 24.7232C23.6621 25.9866 23.1974 26.4096 22.7474 26.4501C21.7698 26.5412 21.0273 25.8043 20.0801 25.1833C18.5973 24.2102 17.7592 23.6049 16.3203 22.6566C14.6564 21.5619 15.7353 20.9578 16.6826 19.9746C16.9312 19.7158 21.2411 15.7952 21.3254 15.4397C21.3299 15.4183 21.3322 15.3947 21.3322 15.3699C21.3322 15.2822 21.2996 15.2023 21.2467 15.1416C21.1882 15.1033 21.1151 15.0819 21.0386 15.0819C20.9879 15.0819 20.9396 15.0921 20.8946 15.1089L20.8968 15.1078C20.7483 15.1416 18.3798 16.7068 13.7913 19.8036C13.2907 20.1984 12.6584 20.4482 11.9699 20.4774H11.9632C10.9878 20.3593 10.1024 20.1422 9.26207 19.8328L9.34532 19.8598C8.29007 19.5156 7.45194 19.3344 7.52394 18.7517C7.56219 18.4487 7.97994 18.1386 8.77719 17.8213C13.6882 15.6816 16.9631 14.2712 18.6018 13.5902C20.4097 12.6306 22.5056 11.8408 24.7094 11.3289L24.8861 11.2941L24.8872 11.2952ZM17.9212 1.15332C8.58144 1.17582 1.01807 8.75269 1.01807 18.0958C1.01807 27.4524 8.60282 35.0383 17.9606 35.0383C27.3183 35.0383 34.9031 27.4536 34.9031 18.0958C34.9031 8.75269 27.3397 1.17582 18.0022 1.15332H17.9999C17.9737 1.15332 17.9474 1.15332 17.9212 1.15332Z"/>

    </g>
    <g id="jsIcon">
        <path d="M2065.33 1435.65C2047.04 1321.58 1972.65 1225.81 1752.35 1136.45C1675.83 1101.28 1590.52 1076.09 1565.09 1018.1C1556.06 984.358 1554.87 965.347 1560.57 944.909C1576.97 878.606 1656.11 857.93 1718.85 876.942C1759.25 890.488 1797.51 921.622 1820.56 971.288C1928.45 901.422 1928.21 901.895 2003.55 853.893C1975.98 811.117 1961.25 791.389 1943.18 773.093C1878.31 700.611 1789.9 663.3 1648.5 666.152C1624.03 669.241 1599.31 672.566 1574.83 675.658C1504.25 693.481 1437 730.554 1397.55 780.222C1279.2 914.493 1312.95 1149.52 1456.96 1246.25C1598.83 1352.71 1807.25 1376.95 1833.87 1476.53C1859.77 1598.44 1744.28 1637.89 1629.49 1623.87C1544.89 1606.28 1497.84 1563.27 1446.98 1485.08C1353.35 1539.27 1353.35 1539.27 1257.1 1594.64C1279.92 1644.54 1303.92 1667.12 1342.18 1710.37C1523.27 1894.07 1976.46 1885.04 2057.73 1606.99C2061.06 1597.49 2082.92 1533.8 2065.33 1435.65ZM1129.01 680.884H895.164C895.164 882.883 894.215 1083.46 894.215 1285.46C894.215 1414.02 900.869 1531.9 879.957 1568.02C845.736 1639.07 757.093 1630.28 716.693 1616.5C675.581 1596.3 654.668 1567.54 630.428 1526.91C623.774 1515.26 618.783 1506.23 617.117 1505.52C553.668 1544.25 490.452 1583.23 427 1621.96C458.609 1686.84 505.186 1743.16 564.835 1779.76C653.952 1833.23 773.726 1849.63 898.968 1820.87C980.481 1797.11 1050.82 1747.92 1087.66 1673.06C1140.89 1574.91 1129.48 1456.09 1129.01 1324.67C1130.2 1110.31 1129.01 895.954 1129.01 680.884Z"/>
    </g>
    <g id="reactIcon">
            <path d="M2194 1250.22C2194 1104.88 2011.99 967.14 1732.93 881.724C1797.33 597.3 1768.71 371.013 1642.59 298.565C1613.52 281.571 1579.54 273.521 1542.42 273.521V373.249C1562.99 373.249 1579.54 377.274 1593.4 384.876C1654.22 419.758 1680.61 552.579 1660.03 723.412C1655.12 765.45 1647.07 809.723 1637.23 854.891C1549.57 833.425 1453.87 816.879 1353.25 806.146C1292.88 723.412 1230.27 648.281 1167.21 582.542C1313 447.038 1449.85 372.802 1542.87 372.802V273.074C1419.88 273.074 1258.89 360.727 1096.11 512.777C933.322 361.621 772.327 274.863 649.345 274.863V374.59C741.917 374.59 879.21 448.38 1025 582.989C962.391 648.729 899.782 723.412 840.303 806.146C739.234 816.879 643.532 833.425 555.879 855.338C545.593 810.618 537.991 767.238 532.624 725.648C511.605 554.815 537.543 421.994 597.916 386.665C611.333 378.615 628.774 375.038 649.345 375.038V275.31C611.78 275.31 577.792 283.36 548.276 300.354C422.611 372.801 394.437 598.641 459.282 882.171C181.119 968.035 0 1105.33 0 1250.22C0 1395.57 182.013 1533.3 461.071 1618.72C396.673 1903.15 425.294 2129.43 551.407 2201.88C580.475 2218.87 614.463 2226.92 652.029 2226.92C775.011 2226.92 936.005 2139.27 1098.79 1987.22C1261.57 2138.38 1422.57 2225.13 1545.55 2225.13C1583.11 2225.13 1617.1 2217.09 1646.62 2200.09C1772.28 2127.64 1800.46 1901.8 1735.61 1618.27C2012.88 1532.86 2194 1395.12 2194 1250.22ZM1611.74 951.935C1595.19 1009.62 1574.62 1069.1 1551.36 1128.58C1533.03 1092.81 1513.8 1057.03 1492.78 1021.25C1472.21 985.476 1450.29 950.594 1428.38 916.606C1491.88 925.997 1553.15 937.625 1611.74 951.935ZM1406.91 1428.21C1372.03 1488.58 1336.26 1545.83 1299.14 1599.04C1232.5 1604.86 1164.98 1607.99 1097 1607.99C1029.47 1607.99 961.943 1604.86 895.757 1599.49C858.639 1546.27 822.415 1489.48 787.532 1429.55C753.545 1370.97 722.687 1311.49 694.513 1251.56C722.24 1191.64 753.545 1131.71 787.085 1073.13C821.968 1012.76 857.744 955.513 894.862 902.295C961.496 896.481 1029.02 893.351 1097 893.351C1164.53 893.351 1232.06 896.481 1298.24 901.848C1335.36 955.066 1371.59 1011.86 1406.47 1071.79C1440.46 1130.37 1471.31 1189.85 1499.49 1249.78C1471.31 1309.7 1440.46 1369.63 1406.91 1428.21ZM1551.36 1370.07C1575.51 1430 1596.08 1489.93 1613.08 1548.06C1554.49 1562.37 1492.78 1574.45 1428.83 1583.84C1450.74 1549.4 1472.65 1514.08 1493.23 1477.85C1513.8 1442.07 1533.03 1405.85 1551.36 1370.07ZM1097.89 1847.24C1056.3 1804.31 1014.71 1756.46 973.571 1704.14C1013.82 1705.93 1054.96 1707.27 1096.55 1707.27C1138.59 1707.27 1180.18 1706.37 1220.88 1704.14C1180.63 1756.46 1139.04 1804.31 1097.89 1847.24ZM765.172 1583.84C701.669 1574.45 640.401 1562.82 581.817 1548.51C598.364 1490.82 618.935 1431.34 642.19 1371.86C660.526 1407.64 679.755 1443.42 700.774 1479.19C721.793 1514.97 743.259 1549.85 765.172 1583.84ZM1095.66 653.201C1137.25 696.133 1178.84 743.984 1219.98 796.307C1179.73 794.518 1138.59 793.177 1097 793.177C1054.96 793.177 1013.37 794.071 972.676 796.307C1012.93 743.984 1054.52 696.133 1095.66 653.201ZM764.725 916.606C742.812 951.041 720.899 986.37 700.327 1022.59C679.755 1058.37 660.526 1094.15 642.19 1129.92C618.041 1070 597.469 1010.07 580.475 951.935C639.06 938.072 700.774 925.997 764.725 916.606ZM360.002 1476.51C201.691 1408.98 99.2801 1320.43 99.2801 1250.22C99.2801 1180.01 201.691 1091.02 360.002 1023.94C398.462 1007.39 440.499 992.631 483.879 978.768C509.369 1066.42 542.91 1157.65 584.5 1251.12C543.357 1344.14 510.264 1434.92 485.22 1522.12C440.947 1508.26 398.909 1493.06 360.002 1476.51ZM600.6 2115.57C539.78 2080.69 513.394 1947.87 533.966 1777.03C538.885 1735 546.935 1690.72 556.773 1645.55C644.426 1667.02 740.129 1683.57 840.75 1694.3C901.123 1777.03 963.732 1852.16 1026.79 1917.9C880.999 2053.41 744.153 2127.64 651.134 2127.64C631.01 2127.2 614.016 2123.17 600.6 2115.57ZM1661.38 1774.8C1682.39 1945.63 1656.46 2078.45 1596.08 2113.78C1582.67 2121.83 1565.23 2125.41 1544.65 2125.41C1452.08 2125.41 1314.79 2051.62 1169 1917.01C1231.61 1851.27 1294.22 1776.59 1353.7 1693.85C1454.77 1683.12 1550.47 1666.57 1638.12 1644.66C1648.41 1689.83 1656.46 1733.21 1661.38 1774.8ZM1833.55 1476.51C1795.09 1493.06 1753.05 1507.81 1709.67 1521.68C1684.18 1434.02 1650.64 1342.79 1609.05 1249.33C1650.2 1156.31 1683.29 1065.53 1708.33 978.32C1752.61 992.184 1794.64 1007.39 1834 1023.94C1992.31 1091.46 2094.72 1180.01 2094.72 1250.22C2094.27 1320.43 1991.86 1409.43 1833.55 1476.51Z"/>
            <path d="M1096.55 1454.6C1209.43 1454.6 1300.93 1363.1 1300.93 1250.22C1300.93 1137.35 1209.43 1045.85 1096.55 1045.85C983.681 1045.85 892.18 1137.35 892.18 1250.22C892.18 1363.1 983.681 1454.6 1096.55 1454.6Z"/>
    </g>
    <g id="reduxIcon">
                <path d="M1732.24 1657.64C1824.49 1648.09 1894.48 1568.56 1891.3 1473.11C1888.12 1377.67 1808.58 1301.31 1713.14 1301.31H1706.79C1608.15 1304.5 1531.81 1387.21 1534.99 1485.84C1538.17 1533.56 1557.26 1574.92 1585.89 1603.55C1477.72 1816.71 1312.29 1972.6 1064.15 2103.04C895.537 2192.12 720.566 2223.94 545.596 2201.68C402.432 2182.58 291.084 2118.96 221.084 2013.96C119.287 1858.07 109.746 1689.45 195.644 1520.84C256.094 1399.94 351.523 1310.86 411.973 1266.31C399.248 1224.96 380.156 1154.97 370.615 1104.07C-90.6837 1438.12 -42.9591 1889.89 97.0214 2103.04C202.002 2262.12 415.156 2360.75 650.576 2360.75C714.199 2360.75 777.822 2354.38 841.455 2338.48C1248.67 2258.94 1557.27 2017.14 1732.24 1657.64ZM2292.16 1263.14C2050.37 979.986 1694.06 824.098 1286.85 824.098H1235.95C1207.31 766.832 1146.87 728.648 1080.06 728.648H1073.69C975.078 731.832 898.73 814.547 901.904 913.18C905.088 1008.62 984.619 1084.98 1080.06 1084.98H1086.42C1156.41 1081.79 1216.86 1037.25 1242.3 976.803H1299.57C1541.36 976.803 1770.41 1046.79 1977.21 1183.6C2136.27 1288.59 2250.8 1425.4 2314.42 1590.83C2368.51 1724.45 2365.32 1854.89 2308.06 1966.25C2218.98 2134.86 2069.46 2227.13 1872.22 2227.13C1744.96 2227.13 1624.07 2188.94 1560.44 2160.31C1525.45 2192.12 1461.82 2243.02 1417.28 2274.85C1554.08 2338.47 1694.06 2373.47 1827.68 2373.47C2133.09 2373.47 2358.96 2204.85 2444.86 2036.24C2537.12 1851.71 2530.75 1533.56 2292.16 1263.14ZM676.025 1711.71C679.209 1807.16 758.74 1883.51 854.18 1883.51H860.547C959.17 1880.34 1035.52 1797.61 1032.33 1698.99C1029.16 1603.54 949.619 1527.19 854.18 1527.19H847.822C841.455 1527.19 831.904 1527.19 825.557 1530.37C695.117 1314.03 641.035 1078.61 660.127 824.088C672.842 633.199 736.474 467.76 847.822 330.953C940.078 213.238 1118.23 155.973 1239.13 152.799C1576.35 146.432 1719.5 566.383 1729.05 735.006C1770.41 744.547 1840.4 766.822 1888.12 782.73C1849.94 267.34 1531.81 0.09375 1226.41 0.09375C940.078 0.09375 676.025 206.891 571.035 512.311C424.697 919.537 520.137 1310.86 698.291 1619.46C682.392 1641.72 672.842 1676.71 676.025 1711.71Z" fill="white"/>
    </g>
    <g>
        <path d="M440.6,220.6c-17.9,0.101 -33.4,4.4 -46.4,10.801c-4.8,-9.5 -9.6,-17.801 -10.399,-24c-0.9,-7.2 -2,-11.601 -0.9,-20.2c1.099,-8.601 6.099,-20.801 6.099,-21.801c-0.101,-0.9 -1.101,-5.3 -11.4,-5.4c-10.299,-0.1 -19.2,2 -20.2,4.7c-1,2.7 -3,8.9 -4.3,15.3c-1.8,9.4 -20.6,42.7 -31.3,60.2c-3.5,-6.8 -6.5,-12.8 -7.101,-17.601c-0.899,-7.199 -2,-11.6 -0.899,-20.199c1.1,-8.601 6.1,-20.8 6.1,-21.8c-0.1,-0.9 -1.1,-5.3 -11.399,-5.4c-10.301,-0.1 -19.2,2 -20.2,4.7c-1,2.7 -2.1,9.1 -4.3,15.3c-2.101,6.2 -27.101,61.8 -33.601,76.3c-3.3,7.4 -6.199,13.3 -8.3,17.3c-2.1,4 -0.1,0.3 -0.3,0.7c-1.8,3.4 -2.8,5.3 -2.8,5.3v0.101c-1.4,2.5 -2.9,4.899 -3.601,4.899c-0.5,0 -1.5,-6.7 0.2,-15.899c3.7,-19.301 12.7,-49.4 12.601,-50.5c0,-0.5 1.699,-5.801 -5.801,-8.5c-7.3,-2.7 -9.899,1.8 -10.5,1.8c-0.6,0 -1.1,1.6 -1.1,1.6c0,0 8.1,-33.899 -15.5,-33.899c-14.8,0 -35.2,16.1 -45.3,30.8c-6.4,3.5 -20,10.899 -34.4,18.8c-5.5,3 -11.2,6.2 -16.6,9.1l-1.099,-1.202c-28.6,-30.5 -81.5,-52.1 -79.3,-93.1c0.8,-14.9 6,-54.2 101.601,-101.8c78.3,-39 141,-28.3 151.899,-4.5c15.5,34 -33.5,97.2 -114.899,106.3c-31,3.5 -47.301,-8.5 -51.4,-13c-4.3,-4.7 -4.9,-4.9 -6.5,-4c-2.6,1.4 -1,5.6 0,8.1c2.4,6.3 12.4,17.5 29.4,23.1c14.899,4.9 51.3,7.6 95.3,-9.4c49.3,-19.1 87.8,-72.1 76.5,-116.4c-11.5,-45.1 -86.3,-59.9 -157,-34.8c-42.101,15 -87.701,38.4 -120.501,69.1c-39,36.4 -45.2,68.2 -42.6,81.4c9.101,47.1 74,77.8 100,100.5c-1.3,0.699 -2.5,1.399 -3.6,2c-13,6.399 -62.5,32.3 -74.9,59.699c-14,31 2.2,53.301 13,56.301c33.4,9.3 67.6,-7.4 86.1,-34.9c18.399,-27.5 16.2,-63.2 7.7,-79.5l-0.301,-0.6l10.2,-6c6.601,-3.9 13.101,-7.5 18.8,-10.601c-3.199,8.7 -5.5,19 -6.699,34c-1.4,17.601 5.8,40.4 15.3,49.4c4.2,3.899 9.2,4 12.3,4c11,0 16,-9.101 21.5,-20c6.8,-13.3 12.8,-28.7 12.8,-28.7c0,0 -7.5,41.7 13,41.7c7.5,0 15,-9.7 18.4,-14.7v0.1c0,0 0.2,-0.3 0.6,-1c0.41959,-0.62041 0.81978,-1.25372 1.2,-1.899v-0.2c3,-5.2 9.7,-17.1 19.7,-36.8c12.899,-25.4 25.3,-57.2 25.3,-57.2c0,0 1.2,7.8 4.9,20.6c2.199,7.601 6.999,15.9 10.699,24c-3,4.2 -4.8,6.601 -4.8,6.601l0.1,0.1c-2.399,3.2 -5.1,6.601 -7.899,10c-10.2,12.2 -22.4,26.101 -24,30.101c-1.9,4.699 -1.5,8.199 2.2,11c2.7,2 7.5,2.399 12.6,2c9.2,-0.601 15.6,-2.9 18.8,-4.301c5,-1.8 10.7,-4.5 16.2,-8.5c10,-7.399 16.1,-17.899 15.5,-31.899c-0.3,-7.7 -2.8,-15.3 -5.9,-22.5c0.9,-1.3 1.801,-2.601 2.7,-4c15.8,-23.101 28,-48.5 28,-48.5c0,0 1.2,7.8 4.9,20.6c1.899,6.5 5.7,13.601 9.1,20.601c-14.8,12.1 -24.1,26.1 -27.3,35.3c-5.9,17 -1.3,24.7 7.4,26.5c3.899,0.8 9.5,-1 13.699,-2.8c5.2,-1.7 11.5,-4.601 17.301,-8.9c10,-7.4 19.6,-17.7 19.1,-31.6c-0.3,-6.4 -2,-12.7 -4.3,-18.7c12.6,-5.2 28.899,-8.2 49.6,-5.7c44.5,5.2 53.3,33 51.601,44.6c-1.7,11.601 -11,18 -14.101,20c-3.1,1.9 -4.1,2.601 -3.8,4c0.4,2.101 1.8,2 4.5,1.601c3.7,-0.601 23.4,-9.5 24.2,-30.899c1.2,-27.504 -24.9,-57.504 -71.2,-57.205zM97.4,336.3c-14.7,16.1 -35.4,22.2 -44.2,17c-9.5,-5.5 -5.801,-29.2 12.3,-46.3c11,-10.4 25.3,-20 34.7,-25.9c2.1,-1.3 5.3,-3.199 9.1,-5.5c0.6,-0.399 1,-0.6 1,-0.6c0.7,-0.4 1.5,-0.9 2.3,-1.4c6.7,24.4 0.3,45.8 -15.2,62.7zM204.9,263.2c-5.1,12.5 -15.9,44.6 -22.4,42.8c-5.601,-1.5 -9,-25.8 -1.101,-49.8c4,-12.101 12.5,-26.5 17.5,-32.101c8.101,-9 16.9,-12 19.101,-8.3c2.6,4.801 -9.9,39.601 -13.1,47.401zM293.6,305.6c-2.2,1.101 -4.2,1.9 -5.1,1.301c-0.7,-0.4 0.899,-1.9 0.899,-1.9c0,0 11.1,-11.9 15.5,-17.4c2.5,-3.199 5.5,-6.899 8.7,-11.1v1.2c0.001,14.399 -13.799,23.999 -19.999,27.899zM361.999,290c-1.6,-1.2 -1.399,-4.9 4,-16.5c2.101,-4.6 6.9,-12.3 15.2,-19.6c1,3 1.601,5.899 1.5,8.6c-0.099,18 -12.899,24.7 -20.7,27.5z"/>
    </g>
    <g id='tsIcon'>
            <path d="M1134.89 686.234H1254.81V893.266H930.594V1814.36L922 1816.7C910.281 1819.83 755.984 1819.83 722.781 1816.31L696.219 1813.97V893.266H372V686.234L474.734 685.062C530.984 684.281 675.516 684.281 795.828 685.062C916.141 685.844 1068.48 686.234 1134.89 686.234ZM2050.12 1716.7C2002.47 1767.09 1951.3 1795.22 1866.14 1818.27C1829.03 1828.42 1822.78 1828.81 1739.19 1828.42C1655.59 1828.03 1648.95 1828.03 1608.33 1817.48C1503.25 1790.53 1418.48 1737.8 1360.67 1663.19C1344.27 1642.09 1317.31 1598.34 1317.31 1592.88C1317.31 1591.31 1321.22 1587.8 1326.3 1585.45C1331.37 1583.11 1341.92 1576.47 1350.52 1571.39C1359.11 1566.31 1374.73 1556.94 1385.28 1551.47C1395.83 1546 1426.3 1528.03 1452.86 1512.02C1479.42 1496 1503.64 1483.11 1506.37 1483.11C1509.11 1483.11 1514.19 1488.58 1518.09 1495.22C1541.53 1534.67 1596.22 1585.06 1634.89 1602.25C1658.72 1612.41 1711.45 1623.73 1736.84 1623.73C1760.28 1623.73 1803.25 1613.58 1826.3 1603.03C1850.91 1591.7 1863.41 1580.38 1878.25 1557.72C1888.41 1541.7 1889.58 1537.41 1889.19 1506.94C1889.19 1478.81 1887.62 1471 1879.81 1458.11C1857.94 1422.17 1828.25 1403.42 1707.94 1350.3C1583.72 1295.22 1527.86 1262.41 1482.55 1218.27C1448.95 1185.45 1442.31 1176.47 1421.22 1135.45C1393.87 1082.72 1390.36 1065.53 1389.97 987.016C1389.58 931.937 1390.75 913.969 1396.61 895.219C1404.81 867.094 1431.37 812.797 1443.48 799.125C1468.48 769.828 1477.47 760.844 1495.05 746.391C1548.17 702.641 1630.98 673.734 1710.28 671C1719.27 671 1748.95 672.562 1776.69 674.516C1856.37 681.156 1910.67 700.687 1963.02 742.484C2002.47 773.734 2062.23 847.172 2056.37 856.938C2052.47 862.797 1896.61 966.703 1886.45 969.828C1880.2 971.781 1875.91 969.437 1867.31 959.281C1814.19 895.609 1792.7 881.937 1741.14 878.812C1704.42 876.469 1684.89 880.766 1660.28 897.172C1634.5 914.359 1622 940.531 1622 976.859C1622.39 1029.98 1642.7 1054.98 1717.7 1092.09C1766.14 1115.92 1807.55 1135.45 1810.67 1135.45C1815.36 1135.45 1915.75 1185.45 1941.92 1201.08C2063.8 1272.56 2113.41 1346 2126.3 1472.56C2135.67 1567.87 2108.72 1654.98 2050.12 1716.7Z" fill="white"/>
    </g>
</svg>
