<svg width="35" height="35" viewBox="0 0 35 35" xmlns="http://www.w3.org/2000/svg">
    <g id="gitHubIcon">
        <path d="M12.0417 28.9592C12.0417 29.1166 11.8842 29.229 11.6593 29.229C11.4344 29.229 11.2544 29.229 11.2544 28.9592C11.2544 28.6894 11.4344 28.6894 11.6368 28.6894C11.8392 28.6894 12.0417 28.8018 12.0417 28.9592ZM9.79244 28.622C9.79244 28.7793 9.79244 28.9592 10.1073 29.0042C10.1879 29.0428 10.2805 29.048 10.3648 29.0186C10.4491 28.9891 10.5183 28.9273 10.5572 28.8468C10.5572 28.6894 10.5572 28.532 10.2423 28.4646C9.92739 28.3971 9.83743 28.4646 9.79244 28.622ZM12.9863 28.5096C12.7839 28.5096 12.649 28.6894 12.6715 28.8693C12.6939 29.0491 12.8739 29.1166 13.0988 29.0716C13.3237 29.0267 13.4362 28.8693 13.4137 28.7119C13.3912 28.5545 13.2113 28.4871 12.9863 28.5096ZM17.7771 0.00141343C15.4051 -0.020912 13.0529 0.436028 10.8618 1.3448C8.67073 2.25358 6.6859 3.59547 5.02642 5.28993C3.36696 6.98439 2.06706 8.99651 1.20476 11.2055C0.342447 13.4145 -0.0645281 15.7748 0.00830192 18.145C-0.0544965 22.0275 1.09745 25.8327 3.30319 29.0291C5.50894 32.2255 8.65836 34.6534 12.3116 35.9738C13.2338 36.1312 13.5711 35.5467 13.5711 35.0745C13.5711 34.6024 13.5711 32.0618 13.5711 30.578C13.5711 30.578 8.48789 31.7021 7.40826 28.3297C7.40826 28.3297 6.59854 26.0814 5.40645 25.6093C5.40645 25.6093 3.74202 24.4402 5.51891 24.4626C6.10087 24.5411 6.65634 24.7549 7.14071 25.0868C7.62509 25.4186 8.02486 25.8595 8.30795 26.3737C8.54329 26.8348 8.87042 27.2431 9.26925 27.5731C9.66806 27.9034 10.1302 28.1487 10.6272 28.2939C11.1243 28.4392 11.6458 28.4814 12.1598 28.418C12.6738 28.3546 13.1693 28.1867 13.6161 27.925C13.7013 26.9863 14.1062 26.1055 14.7632 25.4294C10.7146 24.9573 6.62103 24.3727 6.62103 17.2007C6.57802 16.3904 6.70825 15.5804 7.00299 14.8245C7.29775 14.0686 7.75028 13.384 8.33044 12.8166C7.78307 11.1708 7.84695 9.38303 8.51038 7.78046C10.0399 7.28584 13.5261 9.78143 13.5261 9.78143C16.5045 8.94176 19.6573 8.94176 22.6355 9.78143C22.6355 9.78143 26.1218 7.28584 27.6512 7.78046C28.3292 9.37989 28.393 11.1729 27.8312 12.8166C28.4319 13.3762 28.9083 14.0556 29.23 14.8108C29.5514 15.566 29.7109 16.3801 29.698 17.2007C29.698 24.3952 25.4245 24.9573 21.3759 25.4294C21.7828 25.8856 22.0925 26.42 22.2859 26.9998C22.4791 27.5797 22.5522 28.1928 22.5005 28.8018C22.5005 31.3199 22.5005 34.4225 22.5005 35.0296C22.4992 35.1813 22.5342 35.3313 22.6031 35.4666C22.6721 35.602 22.7724 35.7189 22.8961 35.807C23.0196 35.8954 23.1629 35.9525 23.3132 35.9736C23.4636 35.995 23.617 35.9795 23.7601 35.9289C27.4067 34.6199 30.5496 32.199 32.7451 29.008C34.9408 25.817 36.0777 22.017 35.9959 18.145C36.017 15.7508 35.5597 13.3764 34.6508 11.1612C33.7419 8.94592 32.3996 6.93436 30.7028 5.24447C29.0059 3.55457 26.9884 2.22033 24.7689 1.32001C22.5493 0.419684 20.1723 -0.0286011 17.7771 0.00141343ZM7.07088 25.6542C7.07088 25.6542 7.07088 25.9015 7.07088 26.0364C7.09595 26.0616 7.12573 26.0816 7.15855 26.0951C7.19137 26.1088 7.22652 26.1158 7.26206 26.1158C7.29757 26.1158 7.33275 26.1088 7.36557 26.0951C7.39836 26.0816 7.42817 26.0616 7.45324 26.0364C7.45324 26.0364 7.45324 25.7891 7.45324 25.6318C7.45324 25.4744 7.16084 25.5643 7.07088 25.6542ZM6.28365 25.0472C6.28365 25.0472 6.28365 25.272 6.44109 25.3395C6.46005 25.3631 6.48405 25.382 6.51129 25.395C6.53853 25.4078 6.56835 25.4148 6.59854 25.4148C6.62872 25.4148 6.65852 25.4078 6.68576 25.395C6.71302 25.382 6.737 25.3631 6.75598 25.3395C6.75598 25.3395 6.75598 25.1146 6.59854 25.0472C6.44109 24.9798 6.32863 24.9798 6.28365 25.0472ZM8.53287 27.7002C8.53287 27.7002 8.53287 28.0149 8.53287 28.1723C8.53287 28.3297 8.91524 28.3522 9.00521 28.1723C9.09518 27.9924 9.00521 27.8575 9.00521 27.7002C9.00521 27.5428 8.71281 27.5878 8.62284 27.7002H8.53287ZM7.70066 26.5985C7.70066 26.5985 7.70066 26.8683 7.70066 27.0482C7.70066 27.228 8.01555 27.2955 8.12801 27.228C8.18496 27.1626 8.21634 27.0787 8.21634 26.992C8.21634 26.9052 8.18496 26.8213 8.12801 26.7559C8.01555 26.576 7.83561 26.5086 7.70066 26.5985Z"/>
    </g>
    <g id="linkedinIcon">
        <path d="M18 0C8.05781 0 0 8.05781 0 18C0 27.9422 8.05781 36 18 36C27.9422 36 36 27.9422 36 18C36 8.05781 27.9422 0 18 0ZM12.9656 25.5305H9.45703V14.3016H12.9656V25.5305ZM11.1164 12.8953H11.0883C9.81562 12.8953 8.99297 12.0375 8.99297 10.9477C8.99297 9.83672 9.84375 9 11.1375 9C12.4312 9 13.2258 9.83672 13.2539 10.9477C13.2609 12.0305 12.4383 12.8953 11.1164 12.8953ZM27 25.5305H23.0203V19.7227C23.0203 18.2039 22.4016 17.1633 21.0305 17.1633C19.9828 17.1633 19.3992 17.8664 19.132 18.5414C19.0336 18.7805 19.0477 19.118 19.0477 19.4625V25.5305H15.1031C15.1031 25.5305 15.1523 15.2367 15.1031 14.3016H19.0477V16.0664C19.2797 15.293 20.5383 14.1961 22.5492 14.1961C25.0453 14.1961 27 15.8133 27 19.2867V25.5305Z"/>
    </g>
    <g id="telegramIcon">
        <path d="M24.8872 11.2952C24.8939 11.2952 24.9029 11.2952 24.9119 11.2952C25.1471 11.2952 25.3653 11.3683 25.5442 11.4943L25.5408 11.4921C25.6713 11.6057 25.7591 11.7654 25.7804 11.9454V11.9488C25.8029 12.0861 25.8153 12.2436 25.8153 12.4044C25.8153 12.4776 25.8131 12.5496 25.8074 12.6216V12.6114C25.5543 15.2766 24.4563 21.7397 23.8983 24.7232C23.6621 25.9866 23.1974 26.4096 22.7474 26.4501C21.7698 26.5412 21.0273 25.8043 20.0801 25.1833C18.5973 24.2102 17.7592 23.6049 16.3203 22.6566C14.6564 21.5619 15.7353 20.9578 16.6826 19.9746C16.9312 19.7158 21.2411 15.7952 21.3254 15.4397C21.3299 15.4183 21.3322 15.3947 21.3322 15.3699C21.3322 15.2822 21.2996 15.2023 21.2467 15.1416C21.1882 15.1033 21.1151 15.0819 21.0386 15.0819C20.9879 15.0819 20.9396 15.0921 20.8946 15.1089L20.8968 15.1078C20.7483 15.1416 18.3798 16.7068 13.7913 19.8036C13.2907 20.1984 12.6584 20.4482 11.9699 20.4774H11.9632C10.9878 20.3593 10.1024 20.1422 9.26207 19.8328L9.34532 19.8598C8.29007 19.5156 7.45194 19.3344 7.52394 18.7517C7.56219 18.4487 7.97994 18.1386 8.77719 17.8213C13.6882 15.6816 16.9631 14.2712 18.6018 13.5902C20.4097 12.6306 22.5056 11.8408 24.7094 11.3289L24.8861 11.2941L24.8872 11.2952ZM17.9212 1.15332C8.58144 1.17582 1.01807 8.75269 1.01807 18.0958C1.01807 27.4524 8.60282 35.0383 17.9606 35.0383C27.3183 35.0383 34.9031 27.4536 34.9031 18.0958C34.9031 8.75269 27.3397 1.17582 18.0022 1.15332H17.9999C17.9737 1.15332 17.9474 1.15332 17.9212 1.15332Z"/>
    </g>
    <g id="scssIcon">
        <path d="M18.1925 21.0376C17.6514 21.2862 17.0585 21.6102 15.8716 22.2616C15.4216 22.5147 14.9514 22.7678 14.5138 23.0063C14.4834 22.9759 14.4519 22.9377 14.4215 22.9062C12.0736 20.3974 7.73114 18.6256 7.91564 15.2562C7.98427 14.0288 8.40615 10.8068 16.2553 6.89407C22.715 3.71032 27.8551 4.59232 28.7428 6.54869C30.0185 9.33757 25.9876 14.5272 19.3164 15.2798C18.578 15.4296 17.8155 15.4115 17.0851 15.2269C16.3546 15.0423 15.6751 14.6959 15.0965 14.2133C14.7433 13.8297 14.6904 13.8072 14.5599 13.8837C14.345 13.9962 14.4834 14.3438 14.5599 14.5429C14.8144 15.0037 15.1586 15.4087 15.5723 15.7341C15.9861 16.0595 16.4608 16.2987 16.9685 16.4374C19.5938 17.0049 22.331 16.7338 24.794 15.6623C28.8373 14.0974 31.994 9.74707 31.0693 6.09982C30.1411 2.40194 24.0031 1.18244 18.1959 3.24569C14.5591 4.47126 11.199 6.40054 8.30714 8.92357C5.10764 11.9161 4.60139 14.5171 4.80839 15.6061C5.55314 19.4727 10.8834 21.9893 13.0209 23.8534C12.9084 23.9153 12.8139 23.9659 12.7295 24.0143C11.663 24.5442 7.59727 26.6693 6.58364 28.9171C5.43277 31.4641 6.76814 33.2899 7.65014 33.5352C8.97932 33.8536 10.3747 33.7489 11.6416 33.2358C12.9084 32.7227 13.9833 31.8268 14.7163 30.6732C15.3387 29.7166 15.7209 28.6238 15.8304 27.4878C15.9399 26.3517 15.7734 25.2061 15.3451 24.1482C15.5978 23.9466 15.8673 23.7671 16.1506 23.6116C16.6951 23.2898 17.2138 22.9726 17.6739 22.7273C19.2493 21.9894 20.9686 21.6094 22.7083 21.6147C26.36 22.0444 27.0811 24.3226 26.9428 25.2822C26.878 25.6227 26.7411 25.9453 26.5413 26.2284C26.3414 26.5116 26.0832 26.7486 25.784 26.9236C25.5309 27.0844 25.4465 27.1384 25.469 27.2532C25.4994 27.4219 25.622 27.4141 25.8369 27.3837C26.3855 27.2103 26.8689 26.875 27.2235 26.4218C27.5781 25.9686 27.7873 25.4188 27.8236 24.8446C27.9361 22.5946 25.7908 20.1263 21.9928 20.1488C20.8555 20.1508 19.7297 20.3751 18.6785 20.8092C18.5098 20.8789 18.3459 20.9539 18.1869 21.0342L18.1925 21.0376ZM12.7644 29.8564C11.5516 31.1761 9.86414 31.6744 9.13514 31.2526C8.34764 30.8026 8.65927 28.8507 10.1476 27.4546C11.0292 26.6603 11.9819 25.9489 12.9939 25.3294C13.1705 25.2169 13.4315 25.0684 13.7454 24.8794C13.7994 24.8491 13.8298 24.8333 13.8298 24.8333L14.0143 24.7208C14.2797 25.6108 14.3039 26.5554 14.0843 27.4578C13.8646 28.3602 13.4091 29.188 12.7644 29.8564Z"
              fill="#CD6799"/>
    </g>
    <g id="jsIcon">
        <path d="M7.83934 0.424429H13.8258V16.952C13.8258 24.4 10.2014 27 4.41122 27C2.99402 27 1.18101 26.7673 0 26.3791L0.670301 21.6066C1.49701 21.8786 2.56151 22.0719 3.74252 22.0719C6.26413 22.0719 7.83934 20.9464 7.83934 16.9127V0.424429ZM19.0238 20.5219C20.599 21.3362 23.1206 22.1521 25.6805 22.1521C28.4384 22.1521 29.8955 21.0265 29.8955 19.2817C29.8955 17.6908 28.6347 16.7209 25.4443 15.6347C21.0331 14.0832 18.1189 11.6781 18.1189 7.83622C18.1189 3.375 21.9396 0 28.1623 0C31.1946 0 33.3619 0.581625 34.9371 1.31887L33.5981 6.05205C32.5735 5.54745 30.644 4.8102 28.0841 4.8102C25.4842 4.8102 24.2234 6.01275 24.2234 7.33163C24.2234 8.99948 25.6805 9.73673 29.147 11.0556C33.8343 12.7627 36 15.1678 36 18.8918C36 23.276 32.6134 27 25.3262 27C22.2939 27 19.2999 26.1857 17.8029 25.3699L19.0238 20.5219Z"
              fill="#F7DF1E"/>
    </g>
    <g id="reactIcon">
        <path d="M21.0138 15.9729C21.0138 14.3592 19.6645 13.0508 18 13.0508C16.3357 13.0508 14.9862 14.3592 14.9862 15.9729C14.9862 17.5868 16.3357 18.8951 18 18.8951C19.6645 18.8951 21.0138 17.5868 21.0138 15.9729Z"
              fill="#53C1DE"/>
        <path fill-rule="evenodd" clip-rule="evenodd"
              d="M28.4405 10.0353C29.1193 7.29204 29.9726 2.2049 26.9645 0.480196C23.9704 -1.23699 20.0741 2.05345 18.0167 4.02853C15.9653 2.07313 11.9596 -1.20324 8.95396 0.52694C5.96101 2.24988 6.88397 7.25268 7.57788 10.0132C4.78597 10.8017 0 12.5002 0 15.9703C0 19.4306 4.78099 21.2785 7.55638 22.0663C6.8599 24.8421 5.98315 29.7734 8.97992 31.4926C11.9968 33.2224 15.99 30.024 18.0665 28.0273C20.1371 30.014 23.9959 33.2334 26.9906 31.5094C29.9947 29.7801 29.2123 24.7611 28.5184 21.9846C31.2088 21.1951 36 19.3874 36 15.9703C36 12.5335 31.1884 10.8213 28.4405 10.0353ZM28.0994 20.5132C27.6438 19.0789 27.0288 17.5536 26.2765 15.978C26.9946 14.4395 27.5857 12.9339 28.0286 11.5088C30.0431 12.0896 34.4622 13.417 34.4622 15.9703C34.4622 18.5477 30.2215 19.8876 28.0994 20.5132ZM26.22 30.1858C23.9856 31.472 20.6665 28.3934 19.1374 26.9303C20.1518 25.827 21.1656 24.5442 22.155 23.1199C23.8955 22.9664 25.5396 22.7153 27.0307 22.3726C27.5191 24.3365 28.4642 28.8939 26.22 30.1858ZM9.74834 30.1675C7.51372 28.8862 8.5351 24.4857 9.04748 22.441C10.522 22.7654 12.1543 22.9988 13.8989 23.1394C14.8948 24.5332 15.9379 25.8143 16.9891 26.9362C15.6904 28.1856 11.9934 31.4548 9.74834 30.1675ZM1.53779 15.9703C1.53779 13.3834 5.93048 12.0656 7.99085 11.4863C8.44141 12.9434 9.03234 14.467 9.74548 16.0076C9.0231 17.5712 8.42372 19.1189 7.96902 20.5932C6.00443 20.034 1.53779 18.5589 1.53779 15.9703ZM9.72444 1.85051C11.9682 0.558965 15.4496 3.7044 16.9391 5.12016C15.8933 6.23697 14.8597 7.50843 13.8724 8.89415C12.1793 9.05021 10.5585 9.3008 9.06851 9.63655C8.5095 7.4101 7.4831 3.14066 9.72444 1.85051ZM23.2552 10.5564C24.4038 10.7006 25.5043 10.8923 26.5376 11.1269C26.2274 12.1157 25.8408 13.1497 25.3854 14.2096C24.7253 12.9641 24.0167 11.7435 23.2552 10.5564ZM18.0172 6.21305C18.7265 6.97719 19.4369 7.83052 20.1358 8.75631C18.7182 8.6896 17.2984 8.68935 15.8808 8.75532C16.5803 7.83813 17.2968 6.98607 18.0172 6.21305ZM10.6278 14.2085C10.1799 13.1522 9.79678 12.1137 9.48386 11.1108C10.511 10.8822 11.6064 10.6954 12.7476 10.5536C11.9839 11.7381 11.2765 12.9582 10.6278 14.2085ZM12.7804 21.4962C11.6015 21.3654 10.4895 21.1881 9.46267 20.9658C9.78053 19.9452 10.1721 18.8843 10.6296 17.8053C11.2872 19.0687 12.0054 20.3006 12.7804 21.4962ZM18.0598 25.8357C17.3309 25.0535 16.6038 24.1884 15.8938 23.258C17.3194 23.3136 18.7477 23.3137 20.1732 23.2505C19.4722 24.1979 18.7643 25.0642 18.0598 25.8357ZM25.4 17.7504C25.8812 18.8411 26.2868 19.8962 26.609 20.8996C25.5652 21.1365 24.4382 21.3273 23.2508 21.4689C24.018 20.2593 24.7379 19.0198 25.4 17.7504ZM21.2968 21.6543C19.1161 21.8092 16.9219 21.8075 14.7406 21.667C13.5011 19.8665 12.3977 17.9729 11.4452 16.0071C12.3931 14.0454 13.4885 12.1556 14.7221 10.3579C16.905 10.1938 19.1014 10.1934 21.2843 10.3589C22.5073 12.1564 23.601 14.0414 24.5708 15.9854C23.6125 17.9461 22.5114 19.8398 21.2968 21.6543ZM26.1964 1.80504C28.4407 3.09236 27.4417 7.66432 26.9514 9.65243C25.4579 9.30966 23.836 9.05464 22.138 8.89612C21.1487 7.49543 20.1238 6.22176 19.0949 5.11937C20.6034 3.67312 23.9737 0.530325 26.1964 1.80504Z"
              fill="#53C1DE"/>
    </g>
    <g id="reduxIcon">
        <path d="M24.9442 23.7454C26.2727 23.6085 27.2806 22.4692 27.2347 21.1017C27.189 19.7346 26.0436 18.6408 24.6692 18.6408H24.5777C23.1574 18.6863 22.058 19.8713 22.1039 21.2841C22.1497 21.9678 22.4245 22.5602 22.8368 22.9704C21.2792 26.0241 18.897 28.2573 15.3238 30.1259C12.8957 31.402 10.3762 31.8579 7.85658 31.5389C5.79502 31.2654 4.19161 30.354 3.18361 28.8497C1.71773 26.6165 1.58034 24.201 2.81728 21.7855C3.68774 20.0536 5.06194 18.7774 5.9324 18.1393C5.74918 17.5468 5.47424 16.5442 5.33686 15.815C-1.30585 20.6005 -0.618612 27.0724 1.39711 30.1259C2.90882 32.4048 5.97824 33.8177 9.36829 33.8177C10.2845 33.8177 11.2007 33.7264 12.117 33.4987C17.9809 32.3593 22.4246 28.8954 24.9442 23.7454ZM33.0071 18.0938C29.5254 14.0375 24.3944 11.8043 18.5305 11.8043H17.7977C17.3854 10.984 16.5149 10.4369 15.5528 10.4369H15.4612C14.0411 10.4826 12.9418 11.6675 12.9875 13.0804C13.0333 14.4477 14.1785 15.5415 15.5528 15.5415H15.6444C16.6523 15.496 17.5228 14.8579 17.8892 13.9919H18.7138C22.1956 13.9919 25.4939 14.9945 28.4718 16.9544C30.7622 18.4584 32.4115 20.4182 33.3277 22.7881C34.1065 24.7023 34.0607 26.571 33.236 28.1662C31.9534 30.5817 29.8003 31.9034 26.9599 31.9034C25.1274 31.9034 23.3867 31.3565 22.4704 30.9463C21.9665 31.402 21.0502 32.1312 20.4088 32.5872C22.3788 33.4986 24.3944 34 26.3185 34C30.7164 34 33.9691 31.5843 35.2061 29.1688C36.5345 26.5253 36.4428 21.9678 33.0071 18.0938ZM9.73476 24.52C9.78061 25.8872 10.9259 26.9809 12.3002 26.9809H12.3919C13.812 26.9355 14.9114 25.7505 14.8656 24.3377C14.8199 22.9703 13.6745 21.8766 12.3002 21.8766H12.2087C12.117 21.8766 11.9795 21.8766 11.888 21.922C10.0097 18.8229 9.23091 15.4503 9.50583 11.8042C9.68892 9.06959 10.6052 6.69957 12.2087 4.73974C13.5371 3.0534 16.1026 2.23305 17.8435 2.18758C22.6994 2.09637 24.7608 8.11241 24.8983 10.528C25.4939 10.6647 26.5018 10.9838 27.189 11.2118C26.6392 3.82845 22.058 0 17.6603 0C13.5371 0 9.73476 2.96248 8.2229 7.33779C6.11564 13.1715 7.48997 18.7774 10.0554 23.1983C9.82645 23.5173 9.68892 24.0186 9.73476 24.52Z"
              fill="#764ABC"/>
    </g>
    <g id='tsIcon'>
        <path d="M30.1121 7.20662C31.3409 7.48389 32.4574 8.10798 33.3209 9.00013C33.7965 9.48296 34.2095 10.0204 34.5507 10.6004C34.5665 10.6634 32.3364 12.1167 30.9839 12.9274C30.9349 12.9596 30.74 12.7538 30.5192 12.4373C30.2721 12.0254 29.9214 11.6809 29.4999 11.4361C29.0783 11.1912 28.5997 11.054 28.1086 11.0372C26.554 10.9336 25.5523 11.7233 25.5595 13.0436C25.5461 13.3679 25.6223 13.6899 25.7804 13.976C26.1225 14.6621 26.7576 15.0737 28.7524 15.9123C32.4245 17.4454 34.0007 18.4563 34.9736 19.8928C35.5235 20.8004 35.8622 21.8137 35.9659 22.8616C36.0696 23.9095 35.9359 24.9668 35.5741 25.9593C35.0768 27.0478 34.2882 27.9873 33.2902 28.6804C32.2921 29.3734 31.121 29.7947 29.8985 29.9006C28.5989 30.0452 27.2859 30.032 25.9897 29.8614C24.0042 29.5449 22.1752 28.6206 20.7702 27.2236C20.2393 26.6438 19.7899 25.9983 19.4336 25.3041C19.5834 25.196 19.7411 25.0987 19.9056 25.0129C20.1336 24.8869 20.9968 24.4053 21.8109 23.9474L23.289 23.1074L23.5979 23.5442C24.1182 24.2659 24.7804 24.8806 25.5465 25.3531C26.3203 25.7648 27.1967 25.9598 28.078 25.9166C28.9594 25.8733 29.811 25.5934 30.5379 25.1081C30.9129 24.7536 31.1473 24.2824 31.2001 23.7771C31.2529 23.2718 31.1207 22.7646 30.8266 22.3443C30.4282 21.7913 29.6141 21.3265 27.3003 20.3534C25.486 19.76 23.8334 18.7764 22.4662 17.4762C21.8151 16.7565 21.3343 15.9074 21.0574 14.9883C20.8527 13.9413 20.8225 12.8692 20.968 11.8129C21.2396 10.5974 21.8899 9.49228 22.8307 8.6473C23.7716 7.80231 24.9575 7.25831 26.2278 7.08901C27.5213 6.93908 28.8308 6.97873 30.1121 7.20662ZM18.0695 9.28294L18.0854 11.3187H11.4023V29.727H6.6895V11.3229H0.00639688V9.32355C-0.0113773 8.63886 0.00789494 7.95375 0.0641342 7.27102C0.0886726 7.23882 4.15194 7.22342 9.07838 7.23182L18.0436 7.25562L18.0695 9.28294Z"
              fill="#007ACC"/>
    </g>
    <g id='styledIcon'>
        <path d="M20.6302 35.4838C20.6842 35.3617 20.8205 35.2768 20.9195 35.174C22.43 33.5902 23.9534 32.0205 25.4434 30.4174C25.9096 29.9868 26.2699 29.4541 26.4961 28.8611C26.7222 28.2681 26.8081 27.6308 26.7469 26.9991C26.7002 26.7286 26.6388 26.4608 26.5631 26.1969C26.1569 26.5826 25.7789 26.9335 25.3984 27.2871C24.807 27.8373 24.2182 28.3901 23.6217 28.9339C23.27 29.2925 22.8178 29.536 22.3247 29.6321C21.8317 29.7283 21.3211 29.6727 20.8604 29.4725C20.394 29.3012 19.9882 28.9966 19.6933 28.5967C19.3985 28.1967 19.2277 27.719 19.202 27.2228C19.1882 27.1589 19.1697 27.0962 19.1467 27.0351C18.6929 27.4208 18.2584 27.7756 17.8277 28.1407L8.87635 35.7255C8.81464 35.7782 8.74779 35.8438 8.68994 35.8952H20.6238L20.6058 35.8836C20.5415 35.8386 20.575 35.6021 20.6302 35.4838Z"
              fill="#FFCEBF"/>
        <path d="M8.14311 35.4836C8.24926 35.3453 8.37737 35.2255 8.52235 35.1288L20.91 24.6193C21.7551 23.9019 22.5963 23.1807 23.4336 22.4557C23.537 22.3835 23.6181 22.2838 23.6676 22.1677C23.8678 21.2949 23.8962 20.3915 23.7511 19.5079C23.6226 19.5979 23.5531 19.6364 23.494 19.6994C22.4797 20.607 21.4705 21.5224 20.4511 22.4248C20.1134 22.7647 19.6766 22.9888 19.2035 23.0648C18.7304 23.1408 18.2454 23.0648 17.8182 22.8478C17.3824 22.642 17.0177 22.3113 16.7704 21.8976C16.5232 21.4839 16.4046 21.006 16.4298 20.5248V20.1082C16.2434 20.2445 16.1072 20.3358 15.9799 20.4386C11.0219 24.4085 6.06478 28.3753 1.10851 32.3391C0.884825 32.5178 0.617428 32.9163 0.32432 32.5294C0.0312116 32.1424 0.477301 31.983 0.702275 31.803C5.98593 27.5632 11.2722 23.3273 16.561 19.0952C17.4223 18.4049 17.4789 18.1156 16.9184 17.019L16.5841 17.3327C15.6675 18.185 14.7406 19.0258 13.8381 19.8923C13.468 20.2494 13.0043 20.4944 12.5008 20.5992C11.9972 20.704 11.4743 20.6643 10.9924 20.4846C10.5105 20.3048 10.0892 19.9925 9.77726 19.5835C9.4653 19.1746 9.27538 18.6858 9.22941 18.1735C9.05843 18.302 8.91059 18.3959 8.77046 18.5052L0.928533 24.5833C0.793282 24.7159 0.639039 24.8277 0.470874 24.915C0.343955 24.9533 0.207665 24.9465 0.0852051 24.8957V35.9014H8.12768C8.09778 35.8353 8.08361 35.7632 8.08629 35.6907C8.08896 35.6182 8.10841 35.5473 8.14311 35.4836Z"
              fill="#FFCEBF"/>
        <path d="M29.8696 0.546253C29.6511 1.26231 29.439 1.97965 29.2474 2.70342C29.0705 3.2149 29.0911 3.77402 29.3051 4.2711C29.5192 4.76818 29.9112 5.16734 30.4044 5.39025C31.9129 6.18318 33.6128 6.53936 35.3127 6.4187V0.668381C35.2938 0.542306 35.3008 0.413706 35.3333 0.290426C35.3693 0.220691 35.4147 0.156238 35.4682 0.098877H29.8645C29.9506 0.199151 29.921 0.375273 29.8696 0.546253Z"
              fill="#FF6196"/>
        <path d="M18.6153 12.8993C18.5887 13.5411 18.3641 14.159 17.9725 14.6682C16.5726 16.4754 14.9649 18.1116 13.1825 19.543C12.8951 19.8091 12.5308 19.9773 12.1419 20.0235C11.753 20.0697 11.3594 19.9915 11.0176 19.8002C10.6775 19.6548 10.3907 19.4077 10.1966 19.0928C10.0026 18.7779 9.91081 18.4107 9.93392 18.0415C9.97509 17.5881 10.1633 17.1606 10.47 16.8241C12.463 14.9236 14.6224 13.2057 16.9222 11.6908C17.0729 11.5727 17.2568 11.5049 17.448 11.4971C17.6393 11.4893 17.8282 11.5417 17.988 11.6471C18.198 11.7775 18.3678 11.9636 18.4785 12.1846C18.5892 12.4056 18.6366 12.653 18.6153 12.8993Z"
              fill="#FF87AF"/>
        <path d="M17.0738 20.691C17.044 20.4068 17.0805 20.1196 17.1804 19.8519C17.2803 19.5842 17.441 19.3434 17.6498 19.1483C19.6012 17.3484 21.6949 15.7091 23.9104 14.2465C23.9773 14.204 24.039 14.1616 24.1123 14.1179C24.3058 13.9782 24.5403 13.9068 24.7788 13.9149C25.0174 13.9231 25.2464 14.0103 25.43 14.1629C25.6076 14.3133 25.7332 14.5159 25.7891 14.7419C25.8449 14.9678 25.8281 15.2056 25.7411 15.4215C25.4608 16.355 24.9435 17.2001 24.2395 17.8743C22.8099 19.2827 21.3527 20.6628 19.8686 22.0138C19.6451 22.2436 19.3516 22.3926 19.0341 22.4373C18.7167 22.482 18.3934 22.4198 18.1151 22.2606C17.8227 22.1087 17.5738 21.8849 17.3916 21.6104C17.2095 21.3358 17.1001 21.0194 17.0738 20.691Z"
              fill="#FF87AF"/>
        <path d="M26.3503 21.5404C25.9904 21.9261 25.6201 22.2938 25.2743 22.6884C25.1703 22.841 25.0841 23.0049 25.0172 23.177C25.2075 23.2335 25.4299 23.3826 25.5841 23.3299C26.3696 23.0664 27.1358 22.7502 27.9984 22.4172C27.8107 22.8491 27.6693 23.2477 27.4701 23.6128C26.6492 24.9923 25.6211 26.2376 24.422 27.3049C23.966 27.7446 23.4925 28.1649 23.0014 28.566C22.7414 28.7818 22.4287 28.9247 22.0953 28.98C21.7619 29.0353 21.4198 29.001 21.104 28.8807C20.7881 28.7604 20.51 28.5584 20.2979 28.2953C20.0858 28.0322 19.9474 27.7175 19.8968 27.3833C19.8762 27.1975 19.8926 27.0095 19.9451 26.8301C19.9977 26.6507 20.0852 26.4835 20.2028 26.3382C21.9522 24.4384 23.9515 22.7851 26.1459 21.4235C26.1726 21.4131 26.2009 21.4074 26.2295 21.4067L26.3503 21.5404Z"
              fill="#FF87AF"/>
        <path d="M29.3018 16.4201L31.5014 6.64978L33.044 7.01102L32.2483 9.42917C31.5052 11.6789 30.7532 13.9286 30.0281 16.1809C29.8867 16.5975 29.7016 16.6746 29.3018 16.4201Z"
              fill="#FF6196"/>
        <path d="M26.8157 22.1665C27.0484 21.2782 27.2798 20.4567 27.4752 19.6263C27.6656 18.8209 28.0278 18.0662 28.537 17.4138C28.8494 17.0037 29.2004 17.167 29.5591 17.2557C29.8907 17.3367 29.9743 17.5797 29.9884 17.8985C30.0407 18.7801 29.7722 19.6509 29.2325 20.35C28.59 21.1466 27.7595 21.7708 26.8157 22.1665Z"
              fill="#FF6196"/>
        <path d="M35.9832 1.15178C36.0023 0.865471 35.995 0.577997 35.9613 0.293029C35.9348 0.21343 35.8822 0.145062 35.8122 0.0989093C35.7551 0.0525058 35.6883 0.0195513 35.6168 0.00249212C35.5756 -0.00522125 35.5178 0.0372021 35.4625 0.0976235C35.4089 0.154985 35.3635 0.219438 35.3275 0.289172C35.2951 0.412453 35.2881 0.541053 35.3069 0.667128V6.41616C33.607 6.53682 31.9072 6.18064 30.3987 5.38771C29.9055 5.1648 29.5134 4.76565 29.2994 4.26856C29.0853 3.77149 29.0647 3.21236 29.2417 2.70089C29.4332 1.97712 29.6453 1.25977 29.8639 0.543714C29.9153 0.372734 29.9449 0.196612 29.8639 0.0963381C29.8188 0.0475238 29.7566 0.0180393 29.6903 0.0140623C29.6054 0.0149782 29.5232 0.0438995 29.4564 0.0963381C29.3602 0.153842 29.2836 0.238953 29.2365 0.340595C28.9794 1.11193 28.7531 1.89098 28.5565 2.67775C28.4822 2.98778 28.4622 3.30834 28.4973 3.62521C28.5471 4.19853 28.7603 4.74555 29.1117 5.2013C29.4631 5.65705 29.9378 6.00239 30.4797 6.19633C30.7226 6.29789 30.8653 6.39816 30.7972 6.71827C30.7033 7.12451 30.6121 7.53074 30.5195 7.93827C29.8896 10.6997 29.2631 13.4623 28.64 16.2263C28.6225 16.3495 28.5683 16.4646 28.4845 16.5567C28.0738 16.8831 27.7287 17.2844 27.4676 17.7394C27.1348 18.3398 26.9045 18.9915 26.7862 19.6677C26.7635 19.8834 26.6856 20.0896 26.5599 20.2664C26.4343 20.4432 26.2652 20.5846 26.0689 20.6769C25.5328 20.9482 25.0404 21.2991 24.4452 21.6642C24.4849 20.9484 24.4772 20.2308 24.4221 19.516C24.3768 19.2962 24.3864 19.0685 24.4501 18.8532C24.5138 18.638 24.6296 18.4417 24.7872 18.2819C25.5713 17.5051 26.1301 16.5304 26.4044 15.4614C26.4864 15.2136 26.5088 14.95 26.47 14.6919C26.4312 14.4338 26.3322 14.1884 26.181 13.9756C26.0298 13.7629 25.8307 13.5887 25.5997 13.4671C25.3688 13.3456 25.1124 13.2801 24.8515 13.2759C24.4289 13.2712 24.0141 13.3891 23.6572 13.6153C22.4305 14.453 21.2251 15.3214 20.0422 16.2199C19.339 16.7495 18.6769 17.3357 17.9956 17.8911C17.9662 17.8595 17.9407 17.8246 17.9197 17.787C17.9067 17.6923 17.8812 17.5998 17.8439 17.5118C17.2744 16.6325 17.669 15.9936 18.2874 15.3367C18.9316 14.6614 19.2876 13.7618 19.2798 12.8285C19.2998 12.353 19.1509 11.8858 18.8595 11.5096C18.7042 11.3186 18.5129 11.16 18.2964 11.0429C17.9889 10.8746 17.6372 10.8043 17.2887 10.8416C16.9401 10.8788 16.6112 11.0217 16.3462 11.2512L15.9875 11.5083C15.1686 12.0945 14.3394 12.6653 13.5514 13.2926C12.4009 14.2111 11.2752 15.1602 10.1755 16.1389C9.66127 16.5927 9.28589 17.2123 8.75238 17.634C5.97042 19.831 3.1589 21.9882 0.357661 24.1595C0.26134 24.2169 0.172773 24.2865 0.0941205 24.3665C0.0860236 24.3782 0.0791321 24.3907 0.0735515 24.4037C0.0144156 24.5413 -0.0357212 24.7688 0.0336992 24.8524C0.0507161 24.8705 0.071283 24.885 0.0941205 24.8948C0.21658 24.9457 0.35287 24.9525 0.479789 24.9141C0.647954 24.8269 0.802198 24.7151 0.937449 24.5824L8.77938 18.5043C8.9195 18.395 9.06734 18.296 9.23832 18.1726C9.28429 18.6849 9.47422 19.1737 9.78617 19.5827C10.0981 19.9916 10.5194 20.304 11.0013 20.4837C11.4832 20.6634 12.0061 20.7032 12.5097 20.5984C13.0132 20.4936 13.4769 20.2485 13.8471 19.8914C14.747 19.025 15.6764 18.1842 16.593 17.3319L16.9273 17.0182C17.4878 18.1148 17.4312 18.404 16.5699 19.0944C11.2768 23.3299 5.98756 27.5662 0.702191 31.8034C0.477218 31.9834 0.0324137 32.1467 0.324236 32.5298C0.616059 32.9129 0.884741 32.5182 1.10843 32.3395C6.06727 28.3791 11.0227 24.4136 15.9747 20.4429C16.1032 20.3401 16.2382 20.2488 16.4246 20.1125V20.5291C16.3994 21.0103 16.518 21.4882 16.7652 21.9019C17.0125 22.3156 17.3772 22.6463 17.813 22.8521C18.2402 23.0691 18.7252 23.1451 19.1983 23.0691C19.6713 22.9931 20.1081 22.769 20.4458 22.4291C21.4653 21.5292 22.4745 20.6113 23.4888 19.7037C23.5531 19.6459 23.6276 19.6022 23.7459 19.5122C23.891 20.3958 23.8626 21.2992 23.6623 22.172C23.6129 22.288 23.5318 22.3878 23.4284 22.46C22.5902 23.1842 21.749 23.9054 20.9048 24.6236L8.52226 35.1343C8.37729 35.2311 8.24917 35.3509 8.14302 35.4891C8.10915 35.5522 8.09015 35.6222 8.08747 35.6937C8.0848 35.7652 8.09852 35.8364 8.1276 35.9018C8.18569 35.9453 8.25283 35.9752 8.32405 35.9892C8.39526 36.0033 8.46873 36.0011 8.53898 35.9828C8.59441 35.9667 8.64543 35.9381 8.6881 35.8992C8.75238 35.8478 8.81666 35.7823 8.87451 35.7295L17.8259 28.1447C18.2565 27.7796 18.6911 27.4197 19.1449 27.0391C19.1678 27.1003 19.1863 27.163 19.2001 27.2268C19.2258 27.723 19.3967 28.2008 19.6915 28.6007C19.9863 29.0007 20.3921 29.3052 20.8585 29.4766C21.3192 29.6767 21.8299 29.7324 22.3229 29.6362C22.8159 29.54 23.2682 29.2965 23.6199 28.9379C24.2164 28.3941 24.8052 27.8413 25.3965 27.2911C25.7822 26.9376 26.155 26.5828 26.5613 26.201C26.637 26.4648 26.6983 26.7326 26.7451 27.0031C26.8042 27.6328 26.7173 28.2676 26.4912 28.8582C26.2652 29.4488 25.906 29.9794 25.4415 30.4086C23.9516 32.013 22.4282 33.5827 20.9177 35.1652C20.8187 35.268 20.6824 35.3529 20.6284 35.475C20.5744 35.5971 20.5397 35.8362 20.604 35.8877L20.622 35.8992C20.7568 35.9648 20.9084 35.9877 21.0565 35.9648C21.098 35.9563 21.135 35.933 21.1606 35.8992C21.1966 35.862 21.2313 35.8157 21.266 35.781C22.4899 34.516 23.7202 33.2574 24.935 31.9834C25.4254 31.4866 25.8864 30.9616 26.3157 30.4112C26.8755 29.7914 27.2467 29.0247 27.3856 28.2012C27.5246 27.3777 27.4254 26.5317 27.0999 25.7626C27.0649 25.5911 27.0991 25.4127 27.195 25.2664C27.2786 25.1224 27.3712 24.9822 27.4663 24.8434C27.7707 24.4482 28.0242 24.0163 28.2209 23.5578C28.601 22.4327 29.1845 21.3869 29.9423 20.4725C30.2907 20.0308 30.5304 19.5134 30.642 18.9621C30.7537 18.4107 30.7342 17.8409 30.5851 17.2984C30.5324 17.0922 30.5324 16.876 30.5851 16.6698C31.2356 14.6553 31.9053 12.6473 32.5687 10.6379L33.4557 7.94598L33.7296 7.11422C34.3132 7.11422 34.8634 7.10265 35.4111 7.11422C35.8662 7.12708 36.005 6.91367 35.9999 6.47144C35.9729 4.69736 35.9832 2.92457 35.9832 1.15178ZM13.1811 19.543C12.8937 19.8091 12.5294 19.9773 12.1405 20.0235C11.7516 20.0697 11.358 19.9915 11.0163 19.8001C10.6761 19.6548 10.3893 19.4077 10.1953 19.0928C10.0012 18.7779 9.90942 18.4107 9.93252 18.0415C9.9737 17.5881 10.162 17.1606 10.4686 16.8241C12.4617 14.9236 14.621 13.2057 16.9208 11.6908C17.0464 11.6021 17.1892 11.5408 17.3399 11.5108C17.4411 11.4922 17.5448 11.4922 17.6459 11.5108C17.767 11.5344 17.8826 11.5807 17.9866 11.6471C18.1968 11.7776 18.3667 11.9639 18.4775 12.1851C18.5882 12.4064 18.6355 12.654 18.6139 12.9005C18.5873 13.5424 18.3628 14.1602 17.9711 14.6695C16.5711 16.4762 14.9634 18.112 13.1811 19.543ZM19.8661 22.0229C19.6426 22.2527 19.349 22.4017 19.0315 22.4464C18.7141 22.4911 18.3908 22.4289 18.1126 22.2697C17.8196 22.1174 17.5703 21.8931 17.3882 21.6178C17.206 21.3425 17.0969 21.0253 17.0712 20.6962C17.0414 20.412 17.0779 20.1248 17.1778 19.8571C17.2778 19.5894 17.4384 19.3486 17.6472 19.1535C19.5986 17.3536 21.6924 15.7143 23.9079 14.2517C23.9747 14.2092 24.0364 14.1668 24.1097 14.1231C24.3032 13.9834 24.5377 13.912 24.7762 13.9201C25.0148 13.9283 25.2439 14.0155 25.4274 14.1681C25.605 14.3185 25.7306 14.5211 25.7865 14.7471C25.8424 14.973 25.8256 15.2108 25.7385 15.4267C25.4582 16.3602 24.9409 17.2053 24.237 17.8795C22.819 19.2962 21.3445 20.6602 19.8686 22.0177L19.8661 22.0229ZM27.465 23.6183C26.6453 24.9957 25.619 26.2391 24.4221 27.3053C23.9661 27.7449 23.4926 28.1653 23.0015 28.5664C22.7415 28.7822 22.4288 28.9251 22.0954 28.9804C21.762 29.0357 21.4199 29.0014 21.1041 28.8811C20.7883 28.7608 20.5101 28.5587 20.298 28.2956C20.0859 28.0325 19.9475 27.7178 19.8969 27.3837C19.8763 27.1979 19.8927 27.0099 19.9452 26.8305C19.9978 26.6511 20.0853 26.4839 20.2029 26.3385C21.9523 24.4388 23.9516 22.7854 26.146 21.4238C26.1727 21.4135 26.201 21.4078 26.2296 21.4071L26.3581 21.5357C25.9982 21.9213 25.6279 22.289 25.2821 22.6837C25.1781 22.8362 25.0919 23.0001 25.025 23.1722C25.2153 23.2287 25.4377 23.3779 25.592 23.3252C26.2129 23.1169 26.8235 22.8752 27.4779 22.6181L28.0062 22.4124C27.8083 22.8495 27.6668 23.248 27.4676 23.6131L27.465 23.6183ZM29.2301 20.3594C28.7506 20.9698 28.1495 21.4741 27.465 21.8403C27.2533 21.9586 27.0361 22.0692 26.8132 22.172C27.0421 21.2965 27.2709 20.4853 27.465 19.6652L27.4727 19.6317C27.6632 18.8264 28.0254 18.0717 28.5346 17.4193C28.847 17.0092 29.198 17.1725 29.5566 17.2612C29.8883 17.3422 29.9719 17.5851 29.986 17.9039C30.0387 18.7848 29.7712 19.6551 29.2327 20.3542L29.2301 20.3594ZM32.2383 9.43209C31.4953 11.6818 30.7432 13.9316 30.0181 16.1839C29.8819 16.6068 29.6968 16.6839 29.2969 16.4294L31.2034 7.95369L31.4965 6.6527L33.0392 7.01395L32.7294 7.95369L32.2383 9.43209Z"
              fill="black"/>
    </g>
    <g id="antIcon">
        <path d="M24.5 27.5L18.7071 33.2929C18.3166 33.6834 17.6834 33.6834 17.2929 33.2929L2.70711 18.7071C2.31658 18.3166 2.31658 17.6834 2.70711 17.2929L17.2929 2.70711C17.6834 2.31658 18.3166 2.31658 18.7071 2.70711L24.5 8.5" fill="transparent" stroke="#24BEFF" stroke-width="4" stroke-linecap="round"/>
        <path d="M27.6533 24.4342C28.4138 25.194 29.6469 25.194 30.4073 24.4342L35.2926 19.553C36.1417 18.7045 36.1417 17.334 35.2927 16.4857L30.3649 11.5794C29.6026 10.8204 28.3692 10.8215 27.6082 11.5818C26.8477 12.3417 26.8477 13.5737 27.6082 14.3336L30.9365 17.6591C31.1478 17.8703 31.1478 18.1908 30.9365 18.402L27.6533 21.6824C26.8928 22.4423 26.8928 23.6743 27.6533 24.4342Z" fill="#F85D62"/>
        <path d="M18.0459 22.2952C20.4013 22.2952 22.3106 20.3874 22.3106 18.034C22.3106 15.6806 20.4013 13.7728 18.0459 13.7728C15.6906 13.7728 13.7812 15.6806 13.7812 18.034C13.7812 20.3874 15.6906 22.2952 18.0459 22.2952Z" fill="#F85D62"/>
    </g>
    <g id="materialIcon">
        <path d="M0 19.2443V3.65625L13.5 11.4503V16.6463L4.5 11.4503V21.8423L0 19.2443Z" fill="#00B0FF"/>
        <path d="M13.5 11.4502L27 3.65625V19.2442L18 24.4402L13.5 21.8422L22.5 16.6462V11.4502L13.5 16.6462V11.4502Z"
              fill="#0081CB"/>
        <path d="M13.5 21.8423V27.0383L22.5 32.2343V27.0383L13.5 21.8423Z" fill="#00B0FF"/>
        <path d="M22.5 32.2342L36 24.4403V14.0483L31.5 16.6463V21.8422L22.5 27.0382V32.2342ZM31.5 11.4503V6.25425L36 3.65625V8.85225L31.5 11.4503Z"
              fill="#0081CB"/>
    </g>
    <g id="gitIcon">
        <path fill-rule="evenodd" clip-rule="evenodd" d="M8.82353 8.2C8.82353 7.42681 9.4556 6.8 10.2353 6.8C11.015 6.8 11.6471 7.42681 11.6471 8.2C11.6471 8.97319 11.015 9.6 10.2353 9.6C9.4556 9.6 8.82353 8.97319 8.82353 8.2ZM11.6471 12.161C13.292 11.5844 14.4706 10.0287 14.4706 8.2C14.4706 5.88041 12.5744 4 10.2353 4C7.89621 4 6 5.88041 6 8.2C6 10.0287 7.17856 11.5844 8.82353 12.161V23.839C7.17856 24.4155 6 25.9713 6 27.8C6 30.1197 7.89621 32 10.2353 32C12.5744 32 14.4706 30.1197 14.4706 27.8C14.4706 26.0268 13.3624 24.5101 11.7954 23.8941C12.2849 22.1111 13.9292 20.8 15.8824 20.8H18.7059C23.384 20.8 27.1765 17.0392 27.1765 12.4V12.161C28.8215 11.5844 30 10.0287 30 8.2C30 5.88041 28.1039 4 25.7647 4C23.4256 4 21.5294 5.88041 21.5294 8.2C21.5294 10.0287 22.708 11.5844 24.3529 12.161V12.4C24.3529 15.4927 21.8246 18 18.7059 18H15.8824C14.2933 18 12.8268 18.5207 11.6471 19.3994V12.161ZM25.7647 9.6C26.5444 9.6 27.1765 8.97319 27.1765 8.2C27.1765 7.42681 26.5444 6.8 25.7647 6.8C24.985 6.8 24.3529 7.42681 24.3529 8.2C24.3529 8.97319 24.985 9.6 25.7647 9.6ZM8.82353 27.8C8.82353 27.0268 9.4556 26.4 10.2353 26.4C11.015 26.4 11.6471 27.0268 11.6471 27.8C11.6471 28.5732 11.015 29.2 10.2353 29.2C9.4556 29.2 8.82353 28.5732 8.82353 27.8Z" fill="#F05033"/>
    </g>
    <g id="stapleIcon">
            <path d="M20.3163 15.6837C17.7578 13.1253 13.6097 13.1253 11.0513 15.6837L6.41883 20.3163C3.86039 22.8747 3.86039 27.0228 6.41883 29.5812C8.97728 32.1396 13.1253 32.1396 15.6837 29.5812L18 27.2649" stroke-width="3" stroke-linecap="round" stroke-linejoin="round"/>
            <path d="M15.6837 20.3163C18.2421 22.8747 22.3902 22.8747 24.9486 20.3163L29.5811 15.6837C32.1396 13.1253 32.1396 8.97728 29.5811 6.41883C27.0227 3.86039 22.8746 3.86039 20.3162 6.41883L18 8.73507" stroke-width="3" stroke-linecap="round" stroke-linejoin="round"/>
    </g>
</svg>
